/* XPM */
static char *bc4c4dad454642c7f7621e5b31aee073[] = {
/* columns rows colors chars-per-pixel */
"128 128 43 1 ",
"  c #1A7D4E",
". c #17BE3E",
"X c #18BD3F",
"o c #18C13C",
"O c #1C8C43",
"+ c #17834D",
"@ c #1A864C",
"# c #1A8C4C",
"$ c #1D9547",
"% c #179C45",
"& c #189C45",
"* c #17974D",
"= c #1A934C",
"- c #179F4D",
"; c #1A9C4C",
": c #158C54",
"> c #198C51",
", c #198E59",
"< c #169350",
"1 c #1C9551",
"2 c #1B9D52",
"3 c #17A746",
"4 c #1AA345",
"5 c #15AC45",
"6 c #19AE46",
"7 c #16A44C",
"8 c #1AA34C",
"9 c #16AC4C",
"0 c #1AAC4C",
"q c #17B647",
"w c #1AB646",
"e c #16BA43",
"r c #18BA43",
"t c #16B34A",
"y c #1AB04C",
"u c #17B84A",
"i c #1BA552",
"p c #17AA52",
"a c #1BAB51",
"s c #1EA358",
"d c #18B251",
"f c #21A94A",
"g c None",
/* pixels */
"gggggggggggggggggggggggggggggggggggggggggggggggggggggggggggggggggggggggggggggggggggggggggggggggggggggggggggggggggggggggggggggggg",
"ggggggggggggggggggggggggggggggggggggggggggggggggggggggggggggggyyyyyyyggggggggggggggggggggggggggggggggggggggggggggggggggggggggggg",
"gggggggggggggggggggggggggggggggggggggggggggggggggggggggggggyyyyyyyyyyyyggggggggggggggggggggggggggggggggggggggggggggggggggggggggg",
"gggggggggggggggggggggggggggggggggggggggggggggggggggggggggyyyyyyyyyyyyyfdaggggggggggggggggggggggggggggggggggggggggggggggggggggggg",
"gggggggggggggggggggggggggggggggggggggggggggggggggggggggy0yyyyyyyyy0yyyyy0ugggggggggggggggggggggggggggggggggggggggggggggggggggggg",
"gggggggggggggggggggggggggggggggggggggggggggggggggggggyyydyyyyyyyyyyyyyyyyygggggggggggggggggggggggggggggggggggggggggggggggggggggg",
"ggggggggggggggggggggggggggggggggggggggggggggggggggggayyyyyyyyyyyyyyyyyyyyaoggggggggggggggggggggggggggggggggggggggggggggggggggggg",
"gggggggggggggggggggggggggggggggggggggggggggggggggggyyyyyyyyyyyyyyyyyyyyyyyyggggggggggggggggggggggggggggggggggggggggggggggggggggg",
"gggggggggggggggggggggggggggggggggggggggggggggggggdyyyyyy0yyyyyyyyyyyyyyyyydggggggggggggggggggggggggggggggggggggggggggggggggggggg",
"ggggggggggggggggggggggggggggggggggggggggggggggggfyyyyyyyyyyyyyyyyyyyyyyyyyyggggggggggggggggggggggggggggggggggggggggggggggggggggg",
"gggggggggggggggggggggggggggggggggggggggggggggggyyyyyyyydyyyyyyy0yyyyyyyyyyyggggggggggggggggggggggggggggggggggggggggggggggggggggg",
"gggggggggggggggggggggggggggggggggggggggggggggggyyyyyyyyyyyyyyyyyyyyyyyyyyyyggggggggggggggggggggggggggggggggggggggggggggggggggggg",
"ggggggggggggggggggggggggggggggggggggggggggggggyyyyyyyyyyyyyyyyyyyyyyyyyyyyfggggggggggggggggggggggggggggggggggggggggggggggggggggg",
"ggggggggggggggggggggggggggggggggggggggggggggg0yyyyyyyyyyyyyyyyyyyyayyyyyyarggggggggggggggggggggggggggggggggggggggggggggggggggggg",
"ggggggggggggggggggggggggggggggggggggggggggggedyyyyyyyyyyyyyyyyyyyyyyyyyyyagggggggggggggggggggggggggggggggggggggggggggggggggggggg",
"ggggggggggggggggggggggggggggggggggggggggggggayyyyyyyyyyyyyyyyyyyyyyyyyyyyygggggggggggggggggggggggggggggggggggggggggggggggggggggg",
"gggggggggggggggggggggggggggggggggggggggggggyyyyyyyyyyyyyyyyyyyyyyyyyyyyyuggggggggggggggggggggggggggggggggggggggggggggggggggggggg",
"ggggggggggggggggggggggggggggggggggggggggggwfyyyyyyyyyyyyyyyyyyyyyyyyyyyauggggggggggggggggggggggggggggggggggggggggggggggggggggggg",
"ggggggggggggggggggggggggggggggggggggggggggyyyyyyyyyyyyyyyyyyyyyyyyyyyyyagggggggggggggggggggggggggggggggggggggggggggggggggggggggg",
"gggggggggggggggggggggggggggggggggggggggggayyyyyyyyyyyyyyyyyyyyyyyyyyyygggggggggggggggggggggggggggggggggggggggggggggggggggggggggg",
"gggggggggggggggggggggggggggggggggggggggggyy0yyyyyyyyyyyyyyyyyyyyyggggggggggggggggggggggggggggggggggggggggggggggggggggggggggggggg",
"gggggggggggggggggggggggggggggggggggggggggyyyyyyyyyyyyyyyyyyyyygggggggggggggggggggggggggggggggggggggggggggggggggggggggggggggggggg",
"ggggggggggggggggggggggggggggggggggggggggyyyyyyyyyyyyyyyyyyyyggggggggggggggggggggggggggggyy0yyyyyyyyyyggggggggggggggggggggggggggg",
"ggggggggggggggggggggggggggggggggggggggggyyyyyyyyyyyyyyyyyyaggggggggggggggggggggggggggyyyyyyydyyyyyyyyyy0yggggggggggggggggggggggg",
"ggggggggggggggggggggggggggggggggggggggggyyyyyyyyyyyyyyyy0ygggggggggggggggggggggggg0yyyyyyyyyy0yyyyyyyyyyy0y8gggggggggggggggggggg",
"gggggggggggggggggggggggggggggggggggggggayyyyyyyyyyyyyyyydgggggggggggggggggggggggy0yyyyyyyyyyyyyyyyyyyyyyy0yy0rgggggggggggggggggg",
"ggggggggggggggggyyyygggggggggggggggggggyyyyy0yyyyyyyyyarggggggggggggggggggggggydyyyyyyyyyyyyyyyyyyyyyyyy0yyy08y6gggggggggggggggg",
"ggggggggggggggyyyyyyyyaggggggggggggggggyyyyyyyyyyyyyyy0ggggggggggggggggggggggyyyyyyyyyyyyyyyyyyyyyyyyyyy000000ya0ggggggggggggggg",
"gggggggggggggayyyyyyyyyygggggggggggggggydy0yyyyyyyyyyygggggggggggggggggggggr0yyyyyyyyyyyyyyyyyyyyyyyayy000000000000ggggggggggggg",
"ggggggggggggwyyyyyyyyyyyyggggggggggggggyyyyyyyyyyyyyyyggggggggggggggggggggyyyyyyyyyyyyyyyyyyyyyyyyy000y0000000080808gggggggggggg",
"gggggggggggayyyyyyyyyyyyyygggggggggggggyyyyyyyyyyyyyaggggggggggggggggggggyyyyyyyyyyyyyyyy0yyyyyy0yyy0y000000800080808ggggggggggg",
"gggggggggg.ayyyyyyyyyyyyyyyggggggggggggyyyyyyyyyyy0dygggggggggggggggggggyyyyyyyyyyyyyyyyyyyyyyyy0yy0y0y00000y00800888igggggggggg",
"gggggggggg0yyyyyyyyyyyyyyyd0gggggggggggyyyyyyyyyyyyawggggggggggggggggggayyyyyyyyyyyyyyyyyyyyyy0yyy0y0600000003008880886ggggggggg",
"gggggggggrayyyyyyyyyyyyyyyyygggggggggggyyyyyyyyyyyyyggggggggggggggggggwyayyyyyyyyyyyyyyyyyyy0yy0y0y0000008800880808884iggggggggg",
"gggggggggyyyyyyyyyyyyyyyyyyyfggggggggggyyyyyyyyyyyyygggggggggggggggggaayyyyyyyyyyyyyyyyyyyyyyy000y0000000008808880808888gggggggg",
"gggggggggyyyyyyyyyyyyyyyyyyyyggggggggggyyyyyyyyyyyyyggggggggggggggggy0yyyyyyyyyyyyyyyyyy0yyy0yyy0000007008000880888888888ggggggg",
"gggggggggyyyyyyyyyyfyyyyyyyyyggggggggggyyyyyyyyyyyyyggggggggggggggggayyyyyyyyyyyyyyyyyyyyyyyy0yy000000080808088a808888-88ggggggg",
"ggggggggyyyyyyyyyyydyyyyyyyw0ggggggggggyyyyayyyyyyyggggggggggggggggyyyyyyyyyyyyyyyyayyy0yyyy00003000080080808088888888888ggggggg",
"ggggggggyyyyyyyyyyyyyyyyyyyygggggggggggyyyyyyyyyyyygggggggggggggggsyyyyyyyyyyyyyyayrgggggggggggg00080080080880888888888-8;gggggg",
"ggggggggyyyyyyyyyyyyyyyyyyyyggggggggggggyyyyyyyyyyygggggggggggggggayyyyyyyyyyyawyggggggggggggggggg00880880888888888888-88;gggggg",
"ggggggggyyyyyyyyyyyyyyyyyyygggggggggggggyyyyyyyyyyyggggggggggggggwayyyyyyyyyyygggggggggggggggggggggga088880888888888888884gggggg",
"ggggggggyyyyyyyyyyy0yyyyyyygggggggggggggyyyyyyyyyyyggggggggggggggyyyyyyyyyyyagggggggggggggggggggggggg80808888888;88;;8;;;ggggggg",
"ggggggggyyyyyyyyyyyyyyyyyyugggggggggggggyyyy0yyyyyygggggggggggggayyyyyyyyyyggggggggggggggggggggggggggg988088888888888;888ggggggg",
"ggggggggyyyyyyyyyyyyyyyyyygggggggggggggggyyyyyyyyyygggggggggggggayyyyyyyyyggggggggggggggggggggggggggggg888888888888;88;;gggggggg",
"ggggggggyyyyyyyyyyyyyyyyyygggggggggggggggydyyyyyyyyggggggggggggrayyyyyyawggggggggggggggggggggggggggggggg888;888;;;8;;824gggggggg",
"ggggggggyyyyyyyyyyyyyyyyyygggggggggggggggy0yyyyyyyyygggggggggggayyyyyyyygggggggggggggggggggggggggggggggg8888888888;88;2ggggggggg",
"ggggggggyyyyyayyyyyyyyyyyyggggggggggggggggyyyyyyyyyyggggggggggg0yyyyyawgggggggggggggggggggggggggggggggggg58888;8;88;;2gggggggggg",
"ggggggggayyyyyyyyyyyyyyyyyggggggggggggggggyyyyyyyyyygggggggggggyyyyyyigggggggggggggggggggggggggggggggggggg28;88;;-;8gggggggggggg",
"gggggggggyyyyyyyyyyyyyyyyygggggggggggggggggyyyyyyyyyggggggggggyyyyyyyggggggggggggggggggggggggggggggggggggggggggggggggggggggggggg",
"gggggggggyyyyyyyyyyyyyyyyyyggggggggggggggggyyyyyyyyyygggggggggyyyyyyyggggggggggggggggggggggggggggggggggggggggggggggggggggggggggg",
"gggggggggyyyyyyyyyyyyyyyyyygggggggggggggggggyyyyyyyyugggggggggyyyyyygggggggggggggggggggggggggggggggggggggggggggggggggggggggggggg",
"gggggggggyyyyyyyyyyyyyyyyyyggggggggggggggggggdyyyyyyygggggggggyyyyyggggggggggggggggggggggggggggggggggggggggggggggggggggggggggggg",
"ggggggggggyyyyyyyyyyyyyyyyyggggggggggggggggggydyyyyyyyggggggggyyyyyggggggggggggggggggggggggggggggggggggggggggggggggggggggggggggg",
"gggggggggg0yyyyyyyyyyyyyyyyyggggggggggggggggggyyyyyyyagggggggyyyyyygggggggggggggg0a80a80a88007gggggggggggggggggggggggggggggggggg",
"ggggggggggeyyyyyyyyyyyyyyyyygggggggggggggggggggyyyyyyyyggggggyyyyyggggggggggg0aa800888088888888-88gggggggggggggggggggggggggggggg",
"gggggggggggaayyyyyyyyyyyyyyywgggggggggggggggggggyyyyyyaygggggyyyyygggggggg8008000800808880888888;888gggggggggggggggggggggggggggg",
"gggggggggggyyyyyyyyyyyyyyyyyydgggggggggggggggggggaayyyyyaggggyyyyyggggggy00080808088808084888888888;88gggggggggggggggggggggggggg",
"ggggggggggggyyyyyyyyyyyyyyyyy0ggggggggggggggggggggyyyyyyyygggyyyyygggga0000000080808888888888;888;8;;;;-gggggggggggggggggggggggg",
"gggggggggggga0yyyyyyyyyyyyyyyyaggggggggggggggggggggyyyyyyywggyyyyagga00000888080808a8088888;888;8;888;;;;;gggggggggggggggggggggg",
"gggggggggggggyyyyyyyyyyyyyayyyyyggggggggggggggggggggyy0yyyyagg0y00g00000800008088088888888888;88;8;;;8;;;;;ggggggggggggggggggggg",
"ggggggggggggggayyyyyyyyyyyyyyyyyyggggggggggggggggggggyyyyyyyyy00000000800aa8gggggg88888888;888;;8;-;;;;;;=;=&ggggggggggggggggggg",
"ggggggggggggggwdyyyyyyyyyyyyyyyyyygggggggggggggggggggggyfyyyyy0000000a08gggggggggggggg8888888;;8;;;;;;;;;;;;1;gggggggggggggggggg",
"ggggggggggggggg0ayyyyyyyyyyyyyyyyyyyggggggggggggggggggggdyy00000000806gggggggggggggggggg88;88;8;;;;;;;;;;;;=;;;ggggggggggggggggg",
"ggggggggggggggggyyyyyyyyyyyyyyyyyyyyygggggggggggggggggggggay00000000aggggggggggggggggggggg8;;8;;8;;;;;;;;=;;;==;gggggggggggggggg",
"gggggggggggggggggyy0yyyyyyyyyyyyyyyyyyyggggggggggggggggggggg00800008808ggggggggggggggggggggg8;;;;;;;;;;;;=;;*===&ggggggggggggggg",
"ggggggggggggggggggadyyyyyyyyyyyyyyyyyyyywgggggggggggggggggy00000808000088gggggggggggggggggggg8;;;;;;;=;=;====;;=$=gggggggggggggg",
"gggggggggggggggggggy0yyyyyyyyyyyyyyyyyyyyyyyggggggggggggyy0003000003888aa80gggggggggggggggggggg;;;;;;;;=;;=;======gggggggggggggg",
"ggggggggggggggggggggyyyyyyyyyyyyyyyyyyyyyyyyyyyyyyyyyy000a000008808g08088888gggggggggggggggggggg;;;$=;=;=;==;==;===ggggggggggggg",
"gggggggggggggggggggggfyyyyyyyyyyyyyyyyyyyyyyyyyyyyyy000000800a90088gg88888888gggggggggggggggggggg2;=;=;==;=;=;==;==$gggggggggggg",
"gggggggggggggggggggggggdyyyyyyyyyyyyyyyyyyyyyyyyyy0a00000000ggga080ggg0888888;gggggggggggggggggggg$;=;=;;===========gggggggggggg",
"ggggggggggggggggggggggggyyyyyyyyyyyyyyyyyyyyy0yyyy000000000gggg0808ggggg8888;88ggggggggggggggggggg7$;=;=;==========>=ggggggggggg",
"ggggggggggggggggggggggggggyyyyyyyyyyyyayyyyyyy0y000000080ggggg68088gggggg2888888ggggggggggggggggggg&==;====;=========ggggggggggg",
"ggggggggggggggggggggggggggggyyyyyyyyyyyyyyya000000000a0gggggggy8888gggggg28-88;8;ggggggggggggggggggg1=;===;===========gggggggggg",
"gggggggggggggggggggggggggggggggyyyyyyyyyyyyyy0ayy0aygggggggggg88088ggggggg88;88;;4gggggggggggggggggg==============####gggggggggg",
"gggggggggggggggggggggggggggggggggggyyyyyyyyyyy0ggggggggggggggg88888gggggggg8;8;;;8;gggggggggggggggggg========#=##==##>%ggggggggg",
"gggggggggggggggggggggggggggggggggggggggggggggggggggggggggggggf88888gggggggg88;8;;;;8ggggggggggggggggg4>==========#=##>=ggggggggg",
"ggggggggggggggggggggggggggggggggggggggggggggggggggggggggggggg888888ggggggggg-;;8;;;1gggggggggggggggggg====#===#=##=#>#>ggggggggg",
"gggggggggggggggggggggggggggggggggggggggggggggggggggggggggggga888888ggggggggg;;;;;;;$-ggggggggggggggggg=======#===#=#####gggggggg",
"gggggggggggggggggggggggggggggggggggggggggggggggggggggggggggg8888888gggggggggg;;;;;;;;,gggggggggggggggg1=====#=###=######gggggggg",
"ggggggggggggggggggggggggggggggggggggggggggggggggggggggggggg8888888ggggggggggg;;;;;;$;;gggggggggggggggg=====>=#=#########gggggggg",
"gggggggggggggggyyyyyygggggggggggggggggggggggggggggggggggggg8888888ggggggggggg;;;;;;=;$;ggggggggggggggg=====##==########@gggggggg",
"gggggggggggg0yyyyyyyyyyggggggggggggggggggggggggggggggggggg28888;8;ggggggggggg3=;;;;;;==ggggggggggggggg=##=#=####=####@@#gggggggg",
"gggggggggggyyyyyyyyyyyyyggggggggggggggggggggggggggggggggg8888;888ggggggggggggg;;=;;===;<gggggggggggggg===###=#########@#gggggggg",
"ggggggggggayyyyyyyyyyyyy0ggggggggggggggggggggggggggggggg8;88888;;ggggggggggggg;=;==;;2$=gggggggggggggg=##==##########@#@gggggggg",
"gggggggggwayyyyyyytyyyyy0rggggggggggggggggggggggggggggg8888;888;3ggggggggggggg;==;=;====gggggggggggggg==#=#######@#@#@@>@ggggggg",
"ggggggggayyyyyyyyy0yyyyyya0gggggggggggggggggggggggggg88888888;82gggggggggggggg;;;=;=;==;>ggggggggggggg>#########@##@#@@@@ggggggg",
"ggggggggyayyyyyyyyyyyyyyyy0ygggggggggggggggggggggggg888888888;;;gggggggggggggg;==;=;=====ggggggggggggg=#=####@@##@##@#@@#ggggggg",
"gggggggyyyyyyyyyyyyyyyy0yyyy0ggggggggggggggggggggg88888;8;8;;88ggggggggggggggg;=;==;=;===gggggggggggg############@@@@@@@gggggggg",
"gggggggyyyyyyyyyyyyyyyyyy6y60a6ggggggggggggggggg88888;8888;8;8-ggggggggggggggg;===;=;====gggggggggggg#####@#@##@@#@#@@@@gggggggg",
"gggggggyyyyyyyyyyyyy0yy0yay00y006gggggggggggg88888888888;;888;gggggggggggggggg=;=========%gggggggggg:#=######@#@@@@@@#@@gggggggg",
"gggggggyyyyyyyyyyyyyy0yyya00000080y80008i808a8888888888;8;;;;;gggggggggggggggg;=========#&gggggggggg##########@@#@@@@@@@gggggggg",
"ggggggggyyyyyyyyyy0yyy0y0700000880080888a88888888;88;8;88;8;;gggggggggggggggg====;=====#=>gggggggggg######@@@@@#@@#@@@ #gggggggg",
"ggggggggyyyyyyyyy0yyy003y000000000888080488888888;8888;;;;;;ggggggggggggggggg$============gggggggggg###@#@#@@@O@#@@@@@ @gggggggg",
"gggggggggayyyyy0yyy0y000000008808080088888888888888;;;88;8;;ggggggggggggggggg$;=========>=gggggggggg####@#@##@@@@@@@@@@ggggggggg",
"gggggggggyayyyy00yy0000000080000800808888888;8-8;8888;8;;;8gggggggggggggggggg$==;===>=#===gggggggggg##@##@@@@@@@@@@@@ @ggggggggg",
"ggggggggggdyyyyyyy0000000000a088080888888888888-88;;8;;;;1gggggggggggggggggg2>=========###ggggggggggg@#@@@#@#@@++@@@@@ ggggggggg",
"gggggggggggyy0yy0y00a0000000808808808888888-88;88;8-;;;;8ggggggggggggggggggg$=====#==##==#ggggggggggg##@@>@@@@@@@ @@@ gggggggggg",
"ggggggggggggy00y0000y0080880088088888888-888888;8;;;;;;;ggggggggggggggggggg;1=======#==###gggggggggggg@@@@@@@@@@@@@  Ogggggggggg",
"ggggggggggggg00000000000080808808a88888888;88;8;;;;8;;;gggggggggggggggggggg====##==#=##=##ggggggggggggg>@@@@@@@  @@  ggggggggggg",
"ggggggggggggggy000000800808080888888888888;8;8;8;8;;;8gggggggggggggggggggg>=$>===#=#=###=#gggggggggggggg@@@@@@@@@  Ogggggggggggg",
"ggggggggggggggg0y0y080080008838888888;888;8;8;8;;;;;gggggggggggggggggggggg===#====#==##=##ggggggggggggggg@@@@@ @ @@ggggggggggggg",
"ggggggggggggggggg88408808880808888888888888;8;;;;;-gggggggggggggggggggggg#=====#########>#ggggggggggggggggg@ @@@@ggggggggggggggg",
"gggggggggggggggggg008808808888888888888;;;88;8;;;ggggggggggggggggggggggg&>=>=##=#==######ggggggggggggggggggggggggggggggggggggggg",
"ggggggggggggggggggggg080888088888;888;8;;8;;;;;gggggggggggggggggggggggg>#====#=#=########ggggggggggggggggggggggggggggggggggggggg",
"ggggggggggggggggggggggg88088888888;8;8;88;;8gggggggggggggggggggggggggg==#====##=######>##ggggggggggggggggggggggggggggggggggggggg",
"gggggggggggggggggggggggggg8888;888888;8;;gggggggggggggggggggggggggggg=====##=##=########>ggggggggggggggggggggggggggggggggggggggg",
"ggggggggggggggggggggggggggggggggggggggggggggggggggggggggggggggggggg======##=#=########@@gggggggggggggggggggggggggggggggggggggggg",
"gggggggggggggggggggggggggggggggggggggggggggggggggggggggggggggggg=======>=#=##########@@>gggggggggggggggggggggggggggggggggggggggg",
"gggggggggggggggggggggggggggggggggggggggggggggggggggggggggg==========#=#==##=#######@@@Oggggggggggggggggggggggggggggggggggggggggg",
"ggggggggggggggggggggggggggggggggggggggggggggggggggggggggg==;======#==#=##=######@###@#>ggggggggggggggggggggggggggggggggggggggggg",
"gggggggggggggggggggggggggggggggggggggggggggggggggggggggg$========#=##=###########@#@#@gggggggggggggggggggggggggggggggggggggggggg",
"ggggggggggggggggggggggggggggggggggggggggggggggggggggggg;===========#=#=#########@##@@#gggggggggggggggggggggggggggggggggggggggggg",
"gggggggggggggggggggggggggggggggggggggggggggggggggggggg==========#=####=########@#@@@@ggggggggggggggggggggggggggggggggggggggggggg",
"gggggggggggggggggggggggggggggggggggggggggggggggggggggg========#==##==########@@#@@##@ggggggggggggggggggggggggggggggggggggggggggg",
"gggggggggggggggggggggggggggggggggggggggggggggggggggggg=====##==##=#############@@@@@gggggggggggggggggggggggggggggggggggggggggggg",
"ggggggggggggggggggggggggggggggggggggggggggggggggggggg=======#=#==##=#######@@@#@@@#ggggggggggggggggggggggggggggggggggggggggggggg",
"ggggggggggggggggggggggggggggggggggggggggggggggggggggg======#=##########@##@#@@@@#@gggggggggggggggggggggggggggggggggggggggggggggg",
"ggggggggggggggggggggggggggggggggggggggggggggggggggggg====##==##==########@#@#@@#@ggggggggggggggggggggggggggggggggggggggggggggggg",
"ggggggggggggggggggggggggggggggggggggggggggggggggggggg====#=#=##########@@#@#@@@@gggggggggggggggggggggggggggggggggggggggggggggggg",
"ggggggggggggggggggggggggggggggggggggggggggggggggggggg=#=#=#=#=########@#@@#@@#@ggggggggggggggggggggggggggggggggggggggggggggggggg",
"ggggggggggggggggggggggggggggggggggggggggggggggggggggg==>#=#=#########@#@@#@@@@gggggggggggggggggggggggggggggggggggggggggggggggggg",
"gggggggggggggggggggggggggggggggggggggggggggggggggggggg#==#########@###@#@@#@@ggggggggggggggggggggggggggggggggggggggggggggggggggg",
"gggggggggggggggggggggggggggggggggggggggggggggggggggggg#==########@@#@@@@@@#ggggggggggggggggggggggggggggggggggggggggggggggggggggg",
"ggggggggggggggggggggggggggggggggggggggggggggggggggggggg############@#@@@#@gggggggggggggggggggggggggggggggggggggggggggggggggggggg",
"gggggggggggggggggggggggggggggggggggggggggggggggggggggggg#>######@@#@@@@#gggggggggggggggggggggggggggggggggggggggggggggggggggggggg",
"ggggggggggggggggggggggggggggggggggggggggggggggggggggggggg#####@#@#@@#ggggggggggggggggggggggggggggggggggggggggggggggggggggggggggg",
"ggggggggggggggggggggggggggggggggggggggggggggggggggggggggggg#@##@@#gggggggggggggggggggggggggggggggggggggggggggggggggggggggggggggg",
"gggggggggggggggggggggggggggggggggggggggggggggggggggggggggggggggggggggggggggggggggggggggggggggggggggggggggggggggggggggggggggggggg"
};
