/* XPM */
static char *_025df6a7b734923fe8724eab14e4af9[] = {
/* columns rows colors chars-per-pixel */
"32 32 178 2 ",
"   c #1A874A",
".  c #1C854B",
"X  c #1A824C",
"o  c #1A834C",
"O  c #1B824D",
"+  c #1A854C",
"@  c #1A864C",
"#  c #1A874C",
"$  c #1A864D",
"%  c #1A874D",
"&  c #1C864E",
"*  c #1B894B",
"=  c #1A8A4B",
"-  c #1A8D4B",
";  c #1A8F4B",
":  c #1E8F48",
">  c #1A884C",
",  c #1A894C",
"<  c #1B894C",
"1  c #1A884D",
"2  c #1A8A4C",
"3  c #1A8B4C",
"4  c #198C4D",
"5  c #1A8C4C",
"6  c #1A8D4C",
"7  c #198F4C",
"8  c #198E4D",
"9  c #1A8E4C",
"0  c #1B8E4C",
"q  c #1A8F4C",
"w  c #1A8E4D",
"e  c #1A8C4E",
"r  c #1A8D4E",
"t  c #198F4E",
"y  c #1A8E4E",
"u  c #1A9248",
"i  c #1A924B",
"p  c #1B954B",
"a  c #1A964B",
"s  c #1A974B",
"d  c #1A904C",
"f  c #1A914C",
"g  c #1A904D",
"h  c #1A914D",
"j  c #19924C",
"k  c #19934D",
"l  c #1A924C",
"z  c #1A934C",
"x  c #1A934D",
"c  c #1B934D",
"v  c #1A904E",
"b  c #19944C",
"n  c #19954C",
"m  c #1A944C",
"M  c #1A954C",
"N  c #1A944D",
"B  c #1B954D",
"V  c #1A964C",
"C  c #1A974C",
"Z  c #1B974C",
"A  c #1C954C",
"S  c #1B994B",
"D  c #199B4B",
"F  c #1D9A49",
"G  c #1A9D4A",
"H  c #1A9E4B",
"J  c #1B984C",
"K  c #1B984D",
"L  c #1A9A4C",
"P  c #1A9B4C",
"I  c #1A9B4D",
"U  c #1A9C4C",
"Y  c #1A9D4D",
"T  c #199E4D",
"R  c #1A9E4C",
"E  c #1A9F4C",
"W  c #1A9F4D",
"Q  c #199C4E",
"!  c #1A9F4E",
"~  c #1C9E4C",
"^  c #159B50",
"/  c #1AA34A",
"(  c #1AA24B",
")  c #1AA34B",
"_  c #1CA04A",
"`  c #19A54A",
"'  c #1AA44A",
"]  c #1AA44B",
"[  c #1AA04C",
"{  c #1AA14C",
"}  c #1BA14C",
"|  c #1AA14D",
" . c #1AA24C",
".. c #1BA24C",
"X. c #1AA34C",
"o. c #1BA34C",
"O. c #1AA24D",
"+. c #1BA14E",
"@. c #19A44C",
"#. c #1AA44C",
"$. c #1AA54C",
"%. c #1AA44D",
"&. c #1AA54D",
"*. c #1AA64C",
"=. c #1BA64C",
"-. c #1AA74C",
";. c #1AA64D",
":. c #1AA74D",
">. c #19A74E",
",. c #19A94A",
"<. c #1AAA4B",
"1. c #1AAB4B",
"2. c #1AAD4B",
"3. c #19AF4B",
"4. c #1AA84C",
"5. c #1BA84C",
"6. c #1AA94C",
"7. c #1BA84D",
"8. c #1AAA4C",
"9. c #1AAB4C",
"0. c #1AAA4D",
"q. c #1AAB4D",
"w. c #1AAA4E",
"e. c #19AC4C",
"r. c #1AAC4C",
"t. c #1AAD4D",
"y. c #19AE4D",
"u. c #19AF4D",
"i. c #1AAE4C",
"p. c #1AAF4C",
"a. c #1BAF4C",
"s. c #1AAF4D",
"d. c #1BAF4D",
"f. c #1BAD4F",
"g. c #18AE4E",
"h. c #1AAE4E",
"j. c #1BAE4E",
"k. c #1BAF4E",
"l. c #1BAE4F",
"z. c #1CAE4C",
"x. c #1CAF4C",
"c. c #1CAC4F",
"v. c #1CAF4E",
"b. c #1DAE4F",
"n. c #1AB842",
"m. c #17B04F",
"M. c #19B049",
"N. c #19B349",
"B. c #18B04A",
"V. c #19B04B",
"C. c #1AB04A",
"Z. c #1AB04B",
"A. c #1AB14B",
"S. c #1BB14B",
"D. c #1AB24A",
"F. c #1AB24B",
"G. c #1CB14B",
"H. c #1CB549",
"J. c #19B04C",
"K. c #19B14C",
"L. c #19B04D",
"P. c #1AB04C",
"I. c #1BB04C",
"U. c #1AB14C",
"Y. c #1BB14C",
"T. c #1AB04D",
"R. c #1BB04D",
"E. c #1AB24C",
"W. c #1AB04E",
"Q. c #1CB04C",
"!. c #1BAB51",
"~. c #1EAA50",
"^. c #19AD51",
"/. c #1BAD50",
"(. c #1BAC51",
"). c #1BAD51",
"_. c #19AE50",
"`. c None",
/* pixels */
"`.`.`.`.`.`.`.`.`.`.`.`.`.`.`.P.P.H.`.`.`.`.`.`.`.`.`.`.`.`.`.`.",
"`.`.`.`.`.`.`.`.`.`.`.`.`.P.P.P.P.R._.`.`.`.`.`.`.`.`.`.`.`.`.`.",
"`.`.`.`.`.`.`.`.`.`.`.`.P.P.P.P.P.P.R.`.`.`.`.`.`.`.`.`.`.`.`.`.",
"`.`.`.`.`.`.`.`.`.`.`.P.P.P.P.P.P.P.F.`.`.`.`.`.`.`.`.`.`.`.`.`.",
"`.`.`.`.`.`.`.`.`.`.`.z.P.P.P.P.P.P.`.`.`.`.`.`.`.`.`.`.`.`.`.`.",
"`.`.`.`.`.`.`.`.`.`.P.P.P.P.P.`.`.`.`.`.`.`.`.h.P.`.`.`.`.`.`.`.",
"`.`.`.`.`.`.`.`.`.`.P.P.P.h.`.`.`.`.`.`.P.P.F.F.P.P.2.F.`.`.`.`.",
"`.`.`.P.P.P.`.`.`.`.h.P.R.`.`.`.`.`.R.P.P.P.P.P.F.h.h.0.7.`.`.`.",
"`.`.z.P.P.P.P.`.`.`.P.P.F.`.`.`.`.h.z.P.P.P.P.P.2.h.4.4.4.;.`.`.",
"`.`.P.P.P.F.P.`.`.`.P.P.P.`.`.`.`.z.P.P.P.`.`.`.4.4.;.;.] | ] `.",
"`.`.P.P.P.P.h.`.`.`.P.P.h.`.`.`.P.h.P.`.`.`.`.`.`.;.;./ / | Q `.",
"`.`.P.P.P.P.P.`.`.`.m.P.P.`.`.`.h.F.`.`.`.`.`.`.`.`./ | Q `.`.`.",
"`.`.P.P.P.P.P.`.`.`.`.F._.`.`.~.h.`.`.`.`.`.`.`.`.`.`.`.`.`.`.`.",
"`.`.`.R.F.P.P.`.`.`.`.`._.n.`.h.R.`.`.h.4.7.=.;.`.`.`.`.`.`.`.`.",
"`.`.`.R.z.P.P.F.`.`.`.`.`.(.(.F.2.2.0.4.;.] | | | Q `.`.`.`.`.`.",
"`.`.`.`.!.P.P.R.P.`.`.`.`.`.P.h.h.0.`.`.`.`.} / H ~ Q S `.`.`.`.",
"`.`.`.`.`.P.P.P.h.P.P.`.`.`.h.0.4.;.`.`.`.`.`.Q Q P P A f `.`.`.",
"`.`.`.`.`.`.z.P.F.P.P.F.h.0.0.0.4.`./ ] `.`.`.`.A S M f M `.`.`.",
"`.`.`.`.`.`.`.`.P.P.P.h.h.`.`.;.;.`.`.~ Q `.`.`.`.M M M 6 u `.`.",
"`.`.`.`.`.`.`.`.`.`.`.`.`.`.`.| +.`.`.Q F `.`.`.`.`.f f r 6 `.`.",
"`.`.`.(.R.F.`.`.`.`.`.`.`.`.] / `.`.`.H M A `.`.`.`.f 6 6 1 `.`.",
"`.`.F.R.P.P.P.`.`.`.`.`.`.| | / `.`.`.D M M `.`.`.6 ; * 1 % `.`.",
"`.R.R.P.F.2.h.2.4.`.`.;.} / } ^ `.`.`.s M f `.`.`.6 * 1 + + `.`.",
"`.`.F.z.h.F.4.4.0.;.| / Q / H `.`.`.`.M M f f `.`.1 1 + + % `.`.",
"`.`.`.h.h.2.0.] ] ;./ | Q H `.`.`.`.`.v f 6 : `.`.`.% % O `.`.`.",
"`.`.`.`.0.] ] ;.| | Q / `.`.`.`.`.`.c r f 6 `.`.`.`.`.% `.`.`.`.",
"`.`.`.`.`.`.`.=.| | `.`.`.`.`.`.`.f 6 u 1 6 `.`.`.`.`.`.`.`.`.`.",
"`.`.`.`.`.`.`.`.`.`.`.`.`.`.M f f 6 1 ; 1 % `.`.`.`.`.`.`.`.`.`.",
"`.`.`.`.`.`.`.`.`.`.`.`.`.A f f f 6 6 1 + `.`.`.`.`.`.`.`.`.`.`.",
"`.`.`.`.`.`.`.`.`.`.`.`.`.f f u 6 1 1 . `.`.`.`.`.`.`.`.`.`.`.`.",
"`.`.`.`.`.`.`.`.`.`.`.`.`.6 6 1 1 % % `.`.`.`.`.`.`.`.`.`.`.`.`.",
"`.`.`.`.`.`.`.`.`.`.`.`.`.`.; 1 * `.`.`.`.`.`.`.`.`.`.`.`.`.`.`."
};
