/* XPM */
static char *d9c6385eb8b0444bc83b0f879f074a2b[] = {
/* columns rows colors chars-per-pixel */
"64 64 23 1 ",
"  c #17874B",
". c #1A864C",
"X c #1A8C4C",
"o c #17904B",
"O c #1A934C",
"+ c #179D4E",
"@ c #1A9C4C",
"# c #198753",
"$ c #1C8A52",
"% c #1B9050",
"& c #1A9C50",
"* c #1CA247",
"= c #19AA43",
"- c #17A34C",
"; c #1AA34C",
": c #1AAC4C",
"> c #1AB646",
", c #19B943",
"< c #16B44A",
"1 c #1AB04C",
"2 c #1DA754",
"3 c #1CAB51",
"4 c None",
/* pixels */
"4444444444444444444444444444444111144444444444444444444444444444",
"4444444444444444444444444444411111114444444444444444444444444444",
"4444444444444444444444444441311111111444444444444444444444444444",
"4444444444444444444444444411111111113444444444444444444444444444",
"4444444444444444444444441111131111111144444444444444444444444444",
"4444444444444444444444411111111111111144444444444444444444444444",
"4444444444444444444444431111111111111444444444444444444444444444",
"4444444444444444444444111111111111111444444444444444444444444444",
"4444444444444444444441111111111111114444444444444444444444444444",
"4444444444444444444441111111111111144444444444444444444444444444",
"4444444444444444444433111111111144444444444444444444444444444444",
"4444444444444444444411111111314444444444444111111111444444444444",
"4444444444444444444411111111144444444444111111111111::4444444444",
"4444444111144444444411111111444444444441111111111111::1:44444444",
"4444443111114444444>31111<34444444444111111111111111:::;3*444444",
"44444<11111114444441111113,4444444443111111111111::3:::::3344444",
"44444111111111444441111113444444444>3111111111111::::-:3:*3*4444",
"4444<1111311114444411111114444444421111111111111:::::3*-;-;&4444",
"444411111111114444441111114444444431111111111111:::::*3;;;;;:444",
"444411111111114444441111114444444111111134444444*::*3;*;;;;;@444",
"44441111111111444444111111444444111111<444444444443;;3;;;;;;;444",
"444411111111144444441111114444441311144444444444444;*-;;@;+;4444",
"4444111111111444444443111144444411114444444444444444;;;;;@&*4444",
"44441111111114444444411111444443113444444444444444444-;++;444444",
"4444111111111444444444111144444111444444444444444444444444444444",
"4444411111111444444444111114444111444444444444444444444444444444",
"4444411111111144444444411124444114444444443*;4444444444444444444",
"444441111111114444444444113,4441144444:3:-:3;;;;;;44444444444444",
"44444431111111144444444441133441144*:::;3*3;;;;;;@;+444444444444",
"444444>3111111314444444444111141141::;;:;;*;;;@;@;@@@44444444444",
"4444444211111111144444444441111133::344444;;;@;@;@@@@O@444444444",
"44444444311111111144444444444311:::4444444444;@;@@@@@@O@44444444",
"44444444413111111111444444444:::*:*34444444444@@@@@@@O@OO4444444",
"444444444411111111111114444::::::*3;;:4444444444@@O@@OOO&4444444",
"44444444444111111111111111::::43;44;;;;4444444444O@O@OOOOO444444",
"44444444444441111111111111:::44:-344=+;;444444444@O@OOOOOOo44444",
"44444444444444411111111133:4444;;;444@;;+444444444OOO@OOOOX44444",
"4444444444444444444411444444444;;;444;;@@@444444444OO%OOX%$44444",
"4444444444444444444444444444443;;44444@@@%444444444OOOXOXOXX4444",
"444444444444444444444444444444;;;44444;@@@@44444444OOOOXXXXX4444",
"44444441111444444444444444444;;;;444444@@O@44444444OXOXXXXo.4444",
"4444431111124444444444444444;;;@*444444@&OOO4444444OO%XXXX..4444",
"4444>3111111<44444444444444;;;@@4444444@@@O@4444444OXXXXXX.X4444",
"44441111111<1344444444444;;;;;;+4444444OOOOO%444444XXXXXX...4444",
"44411111111:::::44444443;;@;;;*44444444&OOOOO44444%XX..o....4444",
"4441111111:1::::::3*;;;;;;;@@@;44444444OOOOOO44444XXXX......4444",
"4444111111::::::*3*3;;;;;;@;@@444444444&OOOOO44444X.X.......4444",
"444443111:=:::3-:*3;;+;;;@;@@444444444OOOOOOo44444.X..X.....4444",
"444444113::*:3*3;;;;;;;;@;@@4444444444O%OOXOX444444X.......44444",
"44444441:::::*:-;;;;;;@;@@@4444444444$OOOOX%X4444444......444444",
"44444444:3;::3*;;;;;@@;@@@44444444444$OXXXXXX44444444....4444444",
"4444444444:;-;;;;;;@@;@+444444444444O%OXOXXXX4444444444444444444",
"444444444444*;;;;;@;;@4444444444444OXOXOXXXX44444444444444444444",
"444444444444444444444444444444444OOOOXXXXXXX44444444444444444444",
"44444444444444444444444444444OOO%oO%XOo.XX..44444444444444444444",
"4444444444444444444444444444%OOOOOO.XXXX.X.444444444444444444444",
"444444444444444444444444444OOOOOoXXXXXX...4444444444444444444444",
"444444444444444444444444444OOOXOOXXXXXX.X.4444444444444444444444",
"44444444444444444444444444OOOOXXXXXX.X...44444444444444444444444",
"44444444444444444444444444OXOXOXXXXXX...444444444444444444444444",
"444444444444444444444444444%X%XXXXXXX..4444444444444444444444444",
"444444444444444444444444444oXXXXX....444444444444444444444444444",
"4444444444444444444444444444XXXX...44444444444444444444444444444",
"444444444444444444444444444444.X.4444444444444444444444444444444"
};
