/* XPM */
static char *_d4a11cdc2c849e1a120068e73833c30[] = {
/* columns rows colors chars-per-pixel */
"16 16 69 1 ",
"  c #1A874B",
". c #19824E",
"X c #1A844C",
"o c #1C844E",
"O c #1B884B",
"+ c #1B894B",
"@ c #1A8F4B",
"# c #1A894C",
"$ c #1A8B4C",
"% c #1A8C4C",
"& c #1B8C4C",
"* c #1A8C4D",
"= c #1A8D4D",
"- c #19954A",
"; c #1A954B",
": c #1A914C",
"> c #1B914D",
", c #1A914E",
"< c #1B964C",
"1 c #159F4A",
"2 c #1B994D",
"3 c #1A9D4C",
"4 c #1A9F4C",
"5 c #1A9F4D",
"6 c #1C8E50",
"7 c #18A14B",
"8 c #1BA14B",
"9 c #19A34B",
"0 c #1AA34B",
"q c #1BA64B",
"w c #1BA04C",
"e c #1AA14C",
"r c #1BA14C",
"t c #1AA24C",
"y c #1AA34C",
"u c #1AA44C",
"i c #1AA64C",
"p c #1BA74C",
"a c #1AA64D",
"s c #1AA94B",
"d c #1AAB4B",
"f c #1AA84C",
"g c #1AA94E",
"h c #1AAC4C",
"j c #19AF4D",
"k c #1AAE4C",
"l c #1AAF4D",
"z c #1BAF4D",
"x c #1BAD4F",
"c c #19AF4E",
"v c #1AAE4E",
"b c #1BAE4E",
"n c #1AAF4E",
"m c #19B744",
"M c #1AB14B",
"N c #1BB14B",
"B c #19B34A",
"V c #1BB24B",
"C c #19B04C",
"Z c #19B14C",
"A c #1AB04C",
"S c #1BB04C",
"D c #1AB14C",
"F c #1BB14C",
"G c #1AB04D",
"H c #1AB24C",
"J c #1AB34C",
"K c #1AB24D",
"L c None",
/* pixels */
"LLLLLLLSSLLLLLLL",
"LLLLLLSSSLLLLLLL",
"LLLLLSzcLLLLLLLL",
"LLcLLSSLLLSSScLL",
"LSSLLSLLmcJScaa0",
"LSNLLSLLzLLLL05L",
"LccLLLNLLLpLLLLL",
"LLSNLLLScLq85LLL",
"LLLcSSLdsLLL2<LL",
"LLLLLcLLL81LL>@L",
"LzNLLLL0LL<LL&#L",
"LNcdda50LL6LLoXL",
"LLdatt5LL-=LL.LL",
"LLLLLLLL>=+LLLLL",
"LLLLLLL:= LLLLLL",
"LLLLLLL#+LLLLLLL"
};
