<svg xmlns="http://www.w3.org/2000/svg" id="ic_zpiv" width="24" height="24" viewBox="0 0 24 24">
    <defs>
        <style type="text/css">
            .cls-1{fill:#5c4b7d}.cls-2{fill:none}
        </style>
    </defs>
    <g id="Group_8933" data-name="Group 8933">
        <g id="Group_8932" data-name="Group 8932">
            <path id="Path_18926" d="M12 2a10 10 0 1 0 10 10A10 10 0 0 0 12 2zm0 19.25A9.25 9.25 0 1 1 21.25 12 9.25 9.25 0 0 1 12 21.25z" class="cls-1" data-name="Path 18926"/>
            <path id="Path_18927" d="M12 3.5a8.5 8.5 0 1 0 8.5 8.5A8.5 8.5 0 0 0 12 3.5zm-4.41 8.964l4.737-5.618H7.739V6h5.922v.811L9.015 12.3l4.712.019v.849H7.59zm8.876 2.524a1.15 1.15 0 0 1-.142.1c-.013.01-.029.019-.041.029s-.045.028-.067.041a1.941 1.941 0 0 1-.19.1.824.824 0 0 1-.085.041.858.858 0 0 1-.092.042c-.041.019-.082.031-.124.047a3.062 3.062 0 0 1-1.026.168h-2.172V19h-.861v-4.218h2.923a1.868 1.868 0 0 0 1.58-.706 1.515 1.515 0 0 0 .142-.232 1.921 1.921 0 0 0 .133-.351 2.246 2.246 0 0 0 .079-.621 2.743 2.743 0 0 0-.018-.32 2.027 2.027 0 0 0-.118-.472.762.762 0 0 0-.035-.085 1.535 1.535 0 0 0-.418-.561 1.526 1.526 0 0 0-.212-.152.831.831 0 0 0-.076-.044 1.432 1.432 0 0 0-.164-.076l-.082-.032a1.909 1.909 0 0 0-.275-.076l-.1-.019a2.288 2.288 0 0 0-.307-.028h-.107l-2.98.012.7-.788h2.382a3.149 3.149 0 0 1 1.026.164c.041.013.082.029.123.045.06.025.121.05.178.079.076.038.148.079.221.123.035.023.07.045.1.07a2.523 2.523 0 0 1 1.051 2.166 2.6 2.6 0 0 1-.946 2.11z" class="cls-1" data-name="Path 18927"/>
        </g>
    </g>
    <path id="Rectangle_4542" d="M0 0h24v24H0z" class="cls-2" data-name="Rectangle 4542"/>
</svg>
