<?xml version="1.0" encoding="utf-8"?>
<!-- Generator: Adobe Illustrator 24.0.1, SVG Export Plug-In . SVG Version: 6.00 Build 0)  -->
<svg version="1.1" id="ic-transaction-staked" xmlns="http://www.w3.org/2000/svg" xmlns:xlink="http://www.w3.org/1999/xlink"
	 x="0px" y="0px" viewBox="0 0 24 24" style="enable-background:new 0 0 24 24;" xml:space="preserve">
<style type="text/css">
	.st0{fill:none;}
	.st1{fill:#7c7687;}
</style>
<path id="Rectangle_4527" class="st0" d="M0,0h24v24H0V0z"/>
<g>
	<g>
		<path class="st1" d="M16.5,12c-0.7-0.6-1.6-1.1-2.5-1.6c-0.4-0.2-1.6-1.2-1.2-2.6l-0.9-0.1c1.2-1.9,2.9-3.9,4.9-5.7
			c-1.6,0.5-2.9,1.3-4,2.8c0.6-1.3,1.6-2.5,2.7-3.8C14,2,12.7,3.3,11.9,4.9l0.6-2.3c-0.9,1.5-1.5,3.1-1.7,4.7L9.7,6.5L9.5,6.7
			c1,1.9,0.5,2.9,0,3.2c-1,0.7-2.6,1.6-3.3,2.4c-1.5,1.5-1.9,2.9-1.7,4.8c0.1,2.4,1.9,4.4,4.2,5.2c1,0.3,2,0.4,3,0.4
			c1.7,0,3.4-0.5,4.7-1.5c1.3-1.1,2.1-2.8,2.1-4.6C18.5,14.9,17.8,13.2,16.5,12z M9.9,7L9.9,7L9.9,7C9.9,7,9.9,7,9.9,7z M13.6,20.7
			c-0.3,0.7-0.9,1.4-1.3,1.7c-0.2,0-0.5,0-0.7,0c-0.6,0-1.3-0.1-1.9-0.2c-0.7-0.2-1.2-0.5-1.6-1c0,0-0.1-0.1-0.1-0.1
			c-0.7-0.8-1.5-2.1-1.9-3.3C6,17.4,5.9,17,6.1,16.5c0.6-2,1.8-2.7,3-3.6c0.3-0.2,0.6-0.3,0.9-0.5c0.5-0.4,0.8-1.5,1.1-2.4
			c-0.1,0.7-0.3,2.1-1,2.6c-0.3,0.2-0.6,0.4-0.9,0.6c-1.2,0.8-2.4,1.5-2.9,3.4c-0.1,0.4,0,0.8,0.1,1.2c0.3,1.2,1.1,2.4,1.8,3.1
			c0,0,0.1,0.1,0.1,0.1c0.4,0.5,0.6,0.7,1.6,1c-0.2-0.1-0.4-0.2-0.6-0.4c-1.1-0.8-1.7-1.8-1.8-3.2c-0.1-1.1,0.6-2.3,2-3
			c0.9-0.5,1.2-1.2,1.5-2.1c-0.2,1-0.4,1.7-1.4,2.2c-1.1,0.7-2,2-1.9,2.9c0.1,1.1,0.9,2.3,1.7,3.1c0.4,0.4,1.1,0.6,1.8,0.7
			c0,0,0,0,0,0c-0.2-0.1-0.5-0.3-0.7-0.6c-0.2-0.2-0.3-0.6-0.4-0.9C10,20.3,9.8,20,9.8,19.7c0-0.7,0.1-1.5,0.6-2.1
			c0.4-0.5,0.6-0.6,0.8-1.1c0-1.7,0-3.2,0-4.5c0-1.4,0-2.5,0-3.2c0-0.7,0-1.1,0-1.1l0.1,0c0,0.2,0,0.7,0,1.5c0,0.8,0,1.9,0,3.3
			c0,1.4,0,3,0,4.7c0,1.2,0,2.4,0,3.7c0,0.4,0,0.8,0,1.1c0,0,0,0,0,0c0.3-0.5,0.4-1.5,0.5-2.1c0-0.5,0.1-1,0-1.6
			c-0.1-0.7-0.3-1.5-0.3-2c0.1,0.5,0.4,1.3,0.5,2c0.1,0.6,0.1,1.1,0.1,1.6c0,0.5-0.1,0.9-0.1,1.3c-0.1,0.3-0.3,0.7-0.6,1v0l0,0h0
			c0,0,0,0,0,0c0,0,0,0,0,0c0,0,0,0,0,0c0.6-0.4,1-1.1,1.1-1.9c0.2-1,0.2-1.9,0.2-2.4c0-0.4-0.2-1.1-0.4-1.7c-0.1-0.5-0.6-1-0.7-1.3
			c-0.2-0.6-0.1-1-0.1-1.9c0.1,0.8,0.1,1.4,0.3,1.7c0.2,0.3,0.4,0.7,0.6,1.2c0.3,0.8,0.5,1.7,0.5,2.1c0,0.7-0.1,1.8-0.3,2.6
			c-0.1,0.3-0.2,0.5-0.3,0.8c0.2-0.4,0.4-0.9,0.5-1.3c0.3-1.5,0.6-3,0.4-3.9c0-0.2-0.1-0.9-0.4-1.7c-0.4-1.1-1-2-1.1-2.2
			c-0.2-0.6-0.3-2.2-0.3-3c0,1,0.2,2.5,0.4,2.8c0.1,0.2,0.7,1.2,1.2,2.3c0.3,0.7,0.4,1.4,0.4,1.6c0.2,2,0,2.8-0.5,4.6
			c-0.1,0.4-0.4,0.8-0.6,1.2c0.5-0.5,0.9-1.2,1-1.7c0.5-2.2,0.7-5.1,0-7.3c-0.4-1.1-1.3-2.1-1.5-2.8c-0.2-0.6-0.1-0.9-0.1-1.8
			c0,1,0.3,1.7,0.4,2.1c0.1,0.2,0.9,1.2,1.3,2.3c0.3,0.7,0.6,2.5,0.6,2.6C14.3,17.2,14.2,19.1,13.6,20.7z"/>
		<path class="st1" d="M11.2,16.5c-0.1,0.6-0.2,0.7-0.6,1.2c-0.5,0.8-0.6,1.5-0.5,2c0,0.3,0.2,0.6,0.3,0.8c0.1,0.3,0.3,0.6,0.5,0.9
			c0.1,0.2,0.2,0.3,0.4,0.4c0-1.7,0-3.5,0-5.1C11.2,16.7,11.2,16.6,11.2,16.5z"/>
	</g>
</g>
</svg>
