<?xml version="1.0" encoding="utf-8"?>
<!-- Generator: Adobe Illustrator 23.1.1, SVG Export Plug-In . SVG Version: 6.00 Build 0)  -->
<svg version="1.1" id="Layer_1" xmlns="http://www.w3.org/2000/svg" xmlns:xlink="http://www.w3.org/1999/xlink" x="0px" y="0px"
	 width="24px" height="31px" viewBox="0 0 24 30" style="enable-background:new 0 0 24 30;" xml:space="preserve">
<style type="text/css">
	.st0{fill:#938DA5;}
</style>
	<title>Cold Staking</title>
	<desc>Created with Sketch.</desc>
	<path class="st0" d="M21.7,22.1l-3-1.6l2.7-0.5c0.5,0,0.8-0.5,0.5-1.1c0-0.5-0.5-0.8-1.1-0.5l-4.3,1.1l-3-1.6l3-1.6l4.3,1.1h0.3
	c0.3,0,0.8-0.3,0.8-0.5c0-0.5-0.3-0.8-0.5-1.1l-2.7-0.5l3-1.6c0.5-0.3,0.5-0.8,0.3-1.1c-0.3-0.3-0.8-0.5-1.1-0.3l-3,1.6l0.8-2.4
	c0-0.5-0.3-0.8-0.5-1.1c-0.5,0-1.1,0.3-1.1,0.5L16,14.8l-3,1.6v-3.3l3.3-3c0.3-0.3,0.3-0.8,0-1.1c-0.3-0.3-0.8-0.3-1.4,0L13.1,11
	V7.8c0-0.5-0.3-0.8-0.8-0.8c-0.5,0-0.8,0.3-0.8,0.8V11L9.3,8.9C9,8.6,8.5,8.6,7.9,8.9c-0.3,0.3-0.3,0.8,0,1.1l3.3,3v3.3l-3-1.6
	l-1.1-4.1c0-0.5-0.5-0.8-1.1-0.5c-0.5,0-0.8,0.5-0.5,1.1l0.8,2.4l-3-1.6c-0.5-0.3-1.1,0-1.1,0.3c-0.3,0.3,0,0.8,0.3,1.1l3,1.6
	l-2.7,0.5c-0.5,0-0.8,0.5-0.5,1.1C2.2,16.7,2.8,17,3,17h0.3l4.3-1.1l3,1.6l-3,1.6l-4.3-1.1c-0.5,0-1.1,0.3-1.1,0.5
	c0,0.5,0.3,0.8,0.5,1.1l2.7,0.5l-3,1.6c-0.5,0.3-0.5,0.8-0.3,1.1c0.3,0.3,0.5,0.5,0.8,0.5s0.3,0,0.5,0l2.7-1.6l-0.8,2.7
	c0,0.5,0.3,0.8,0.5,1.1h0.3c0.3,0,0.8-0.3,0.8-0.5l1.1-4.1l3-1.6v3.3l-3.3,3c-0.3,0.3-0.3,0.8,0,1.1s0.8,0.3,1.4,0l1.9-1.9v3.3
	c0,0.5,0.3,0.8,0.8,0.8c0.5,0,0.8-0.3,0.8-0.8v-3.3l1.9,1.9C15,27,15,27,15.2,27c0.3,0,0.5,0,0.5-0.3c0.3-0.3,0.3-0.8,0-1.1l-3.3-3
	v-3.5l3,1.6l1.1,4.1c0,0.3,0.5,0.5,0.8,0.5h0.3c0.5,0,0.8-0.5,0.5-1.1v-2.4l3,1.6c0.3,0,0.3,0,0.5,0c0.3,0,0.5-0.3,0.8-0.5
	C22.6,23,22.3,22.4,21.7,22.1z"/>
</svg>
