<?xml version="1.0" encoding="UTF-8"?>
<svg width="28px" height="24px" viewBox="0 0 28 24" version="1.1" xmlns="http://www.w3.org/2000/svg" xmlns:xlink="http://www.w3.org/1999/xlink">
    <!-- Generator: Sketch 52.6 (67491) - http://www.bohemiancoding.com/sketch -->
    <title>Sub Menu Locked Copy 2</title>
    <desc>Created with Sketch.</desc>
    <g id="Sub-Menu-Locked-Copy-2" stroke="none" stroke-width="1" fill="none" fill-rule="evenodd">
        <g id="ic-check-locked" transform="translate(4.000000, 0.000000)">
            <path d="M18,10 L18,8 C18,4.6862915 15.3137085,2 12,2 C8.6862915,2 6,4.6862915 6,8 L6,10 L4,10 L4,22 L20,22 L20,10 L18,10 Z M8,8 C8,5.790861 9.790861,4 12,4 C14.209139,4 16,5.790861 16,8 L16,10 L8,10 L8,8 Z M18,20 L6,20 L6,12 L18,12 L18,20 Z" id="Path_18899" fill="#FFFFFF" fill-rule="nonzero"></path>
            <polygon id="Rectangle_4417" points="0 0 24 0 24 24 0 24"></polygon>
        </g>
    </g>
</svg>