<?xml version="1.0" encoding="utf-8"?>
<!-- Generator: Adobe Illustrator 23.1.1, SVG Export Plug-In . SVG Version: 6.00 Build 0)  -->
<svg version="1.1" id="ic-transaction-staked" xmlns="http://www.w3.org/2000/svg" xmlns:xlink="http://www.w3.org/1999/xlink"
	 x="0px" y="0px" viewBox="0 0 24 24" style="enable-background:new 0 0 24 24;" xml:space="preserve">
<style type="text/css">
	.st0{fill:#707070;}
	.st1{fill:none;}
	.st2{fill:none;stroke:#707070;stroke-width:2;stroke-miterlimit:10;}
	.st3{fill:#FFFFFF;stroke:#707070;stroke-width:2;stroke-miterlimit:10;}
	.st4{fill:#FFFFFF;}
</style>
<path id="Path_18914" class="st0" d="M-7.1,8l-2.1,0.3c-0.1-1.7-1.5-4.4-3.1-4.3c-1.4,0.1-2.6,1.1-2.8,2.6l0,0l0,0
	C-15.4,4.9-17,3.8-18.6,4c-1.5,0.2-2.6,1.5-2.6,3L-23,8l0,6l-0.1,10h16L-7,14L-7.1,8z M-13.2,7.4V7c0-0.6,0.4-1,1-1s1,0.4,1,1v1
	h-2.6L-13.2,7.4z M-19.2,7c0-0.6,0.4-1,1-1c0.6,0,1,0.4,1,1v0.4l0.6,0.6h-2.6V7z M-9.2,22h-12l0.1-11.7l12,0.1L-9.2,22z M-23.2,12"
	/>
<path id="Rectangle_4527" class="st1" d="M-0.5,0h24v24h-24V0z"/>
<path class="st0" d="M15.5,17.1l-1.1-0.6l1-0.2c0.2,0,0.3-0.2,0.2-0.4c0-0.2-0.2-0.3-0.4-0.2l-1.6,0.4l-1.1-0.6l1.1-0.6l1.6,0.4
	c0,0,0.1,0,0.1,0c0.1,0,0.3-0.1,0.3-0.2c0-0.2-0.1-0.3-0.2-0.4l-1-0.2l1.1-0.6c0.2-0.1,0.2-0.3,0.1-0.4c-0.1-0.1-0.3-0.2-0.4-0.1
	l-1.1,0.6l0.3-0.9c0-0.2-0.1-0.3-0.2-0.4c-0.2,0-0.4,0.1-0.4,0.2l-0.4,1.5l-1.1,0.6v-1.2l1.2-1.1c0.1-0.1,0.1-0.3,0-0.4
	c-0.1-0.1-0.3-0.1-0.5,0l-0.7,0.7v-1.2c0-0.2-0.1-0.3-0.3-0.3c-0.2,0-0.3,0.1-0.3,0.3v1.2l-0.7-0.7c-0.1-0.1-0.3-0.1-0.5,0
	c-0.1,0.1-0.1,0.3,0,0.4l1.2,1.1v1.2l-1.1-0.6l-0.4-1.5c0-0.2-0.2-0.3-0.4-0.2c-0.2,0-0.3,0.2-0.2,0.4l0.3,0.9l-1.1-0.6
	c-0.2-0.1-0.4,0-0.4,0.1c-0.1,0.1,0,0.3,0.1,0.4l1.1,0.6l-1,0.2c-0.2,0-0.3,0.2-0.2,0.4c0,0.1,0.2,0.2,0.3,0.2c0,0,0.1,0,0.1,0
	l1.6-0.4l1.1,0.6l-1.1,0.6l-1.6-0.4c-0.2,0-0.4,0.1-0.4,0.2c0,0.2,0.1,0.3,0.2,0.4l1,0.2l-1.1,0.6c-0.2,0.1-0.2,0.3-0.1,0.4
	c0.1,0.1,0.2,0.2,0.3,0.2c0.1,0,0.1,0,0.2,0L9.8,17L9.5,18c0,0.2,0.1,0.3,0.2,0.4c0,0,0.1,0,0.1,0c0.1,0,0.3-0.1,0.3-0.2l0.4-1.5
	l1.1-0.6v1.2l-1.2,1.1c-0.1,0.1-0.1,0.3,0,0.4c0.1,0.1,0.3,0.1,0.5,0l0.7-0.7v1.2c0,0.2,0.1,0.3,0.3,0.3c0.2,0,0.3-0.1,0.3-0.3v-1.2
	l0.7,0.7c0.1,0.1,0.1,0.1,0.2,0.1c0.1,0,0.2,0,0.2-0.1c0.1-0.1,0.1-0.3,0-0.4l-1.2-1.1V16l1.1,0.6l0.4,1.5c0,0.1,0.2,0.2,0.3,0.2
	c0,0,0.1,0,0.1,0c0.2,0,0.3-0.2,0.2-0.4L14.1,17l1.1,0.6c0.1,0,0.1,0,0.2,0c0.1,0,0.2-0.1,0.3-0.2C15.7,17.4,15.7,17.2,15.5,17.1z"
	/>
<path class="st0" d="M28.5,14.3c-0.7-0.8-1.5-1.4-1.9-1.7c-0.3-0.2-0.3,0-0.3,0.1c0.1,0.4,0.2,1.1-0.8,2.3c-1.3,1.7-0.4,2.9,0.5,3.5
	c0.4,0.3,0.9,0.2,0.9,0.2c0.1,0,0.2,0,0.2-0.1c-0.5-0.3-1.7-1.2-0.1-3.6c0,0-0.1,0.9,0.3,1.2c0.2,0.1,0.6-0.3,0.6-0.3
	s0.8,1.7-0.4,2.5c-0.1,0-0.1,0.1-0.2,0.1c0.1,0.1,0.2,0.1,0.2,0.1c0.6,0,1.3-0.4,1.7-1.3C29.9,16.3,29.3,15.1,28.5,14.3z"/>
<rect x="4.6" y="10" class="st2" width="14.3" height="10.9"/>
<rect x="2.7" y="7.1" class="st3" width="18.3" height="2.8"/>
<g>
	<path class="st2" d="M11.4,6.8l-1.2-2.3c-0.6-1.1-2-1.6-3.1-1s-1.6,2-1,3.1l1.2,2.2C8.7,8.2,10.1,7.5,11.4,6.8z"/>
	<path class="st2" d="M12.2,6.8l1.2-2.3c0.6-1.1,2-1.6,3.1-1c1.1,0.6,1.6,2,1,3.1l-1.2,2.2C14.9,8.2,13.5,7.5,12.2,6.8z"/>
	<path class="st1" d="M13.2,5.7C13.2,5.7,13.2,5.7,13.2,5.7l0-1.5c0-0.7-0.6-1.3-1.3-1.3c0,0,0,0,0,0c-0.3,0-0.6,0.1-0.9,0.4
		c-0.2,0.2-0.4,0.6-0.4,0.9l0,1h2.5V5.7z"/>
</g>
<rect x="3.3" y="7.6" class="st4" width="17" height="1.8"/>
</svg>
