<svg id="ic-transaction-staked" xmlns="http://www.w3.org/2000/svg" width="28" height="28" viewBox="0 0 24 24">
  <defs>
    <style type="text/css">
      .cls-1 {
        fill: none;
      }

      .cls-2 {
        fill: #B6B6B6;
      }
    </style>
  </defs>
  <title>contract-icon-reward</title>
  <path class="cls-1" d="M10.24,5.76l-.59-1a1.44,1.44,0,0,0-.8-.6,1.39,1.39,0,0,0-.4-.06,1.22,1.22,0,0,0-.54.12A1.17,1.17,0,0,0,7.3,5.76Z"/>
  <path class="cls-1" d="M16.92,4.92a1.36,1.36,0,0,0-.67-.73,1.26,1.26,0,0,0-.94-.06,1.42,1.42,0,0,0-.8.61l-.59,1h2.94A1,1,0,0,0,16.92,4.92Z"/>
  <rect class="cls-1" x="5.93" y="10.15" width="12.3" height="9.58"/>
  <rect class="cls-1" x="3.63" y="7.13" width="17" height="1.64"/>
  <g>
    <path class="cls-1" d="M10.24,5.76l-.59-1a1.44,1.44,0,0,0-.8-.6,1.39,1.39,0,0,0-.4-.06,1.22,1.22,0,0,0-.54.12A1.17,1.17,0,0,0,7.3,5.76Z"/>
    <path class="cls-1" d="M16.92,4.92a1.36,1.36,0,0,0-.67-.73,1.26,1.26,0,0,0-.94-.06,1.42,1.42,0,0,0-.8.61l-.59,1h2.94A1,1,0,0,0,16.92,4.92Z"/>
    <rect class="cls-1" x="5.93" y="10.15" width="12.3" height="9.58"/>
    <path class="cls-2" d="M22.23,5.76h-3.3a2.63,2.63,0,0,0-.11-1.41,3.22,3.22,0,0,0-1.61-1.76,3.45,3.45,0,0,0-2.53-.19,3.32,3.32,0,0,0-1.93,1.48L12.08,5l-.67-1.17A3.36,3.36,0,0,0,9.49,2.4,3.42,3.42,0,0,0,7,2.59,3,3,0,0,0,5.23,5.76H1.93v4.39H3.86L3.93,21.9h16.3l-.07-11.75h2.07Zm-7.72-1a1.42,1.42,0,0,1,.8-.61,1.26,1.26,0,0,1,.94.06,1.36,1.36,0,0,1,.67.73,1,1,0,0,1-.06.84H13.92Zm-6.6-.55a1.22,1.22,0,0,1,.54-.12,1.39,1.39,0,0,1,.4.06,1.44,1.44,0,0,1,.8.6l.59,1H7.3A1.17,1.17,0,0,1,7.91,4.19ZM18.23,19.73H5.93V10.15h12.3Zm2.4-11h-17V7.13h17Z"/>
  </g>
  <g>
    <path class="cls-2" d="M16.37,16.65,14,14.52l-1.14-1a1.78,1.78,0,0,0-.44-.32,2,2,0,0,0-1-.1,1.09,1.09,0,0,0-.26.05.84.84,0,0,0-.23.23,2.79,2.79,0,0,1-.92.89,1,1,0,0,1-1.24-.2l0,0,0,0a4.24,4.24,0,0,0,.3-.77A3.17,3.17,0,0,1,9.66,12a2.93,2.93,0,0,1,.8-.53l.22-.11a2.93,2.93,0,0,0-1.95.5L8.56,12a1.92,1.92,0,0,1-.57.34,2,2,0,0,1-.64.07H5.86s0,0,0,.06l0,3.73a.19.19,0,0,0,0,.08H7.55a1.61,1.61,0,0,1,.67-.86.78.78,0,0,1,.7,0,.55.55,0,0,1,.25.25,1,1,0,0,1,.59-.3.67.67,0,0,1,.61.31,1,1,0,0,1,.64-.31h0a.7.7,0,0,1,.61.34.85.85,0,0,1,.73-.18.68.68,0,0,1,.52.68,1.16,1.16,0,0,1-.17.44c-.29.51-.59,1-.9,1.52a1.42,1.42,0,0,0,.93.56h0a.44.44,0,0,0,.31-.17.17.17,0,0,0,0-.17.56.56,0,0,0-.12-.16l-.53-.52.2-.19.64.54a1.43,1.43,0,0,0,.62.33h0a.43.43,0,0,0,.32-.16.27.27,0,0,0,.05-.23.51.51,0,0,0-.2-.24L13.26,17l0-.06,0-.05.13-.14,0-.06.06.06a11,11,0,0,0,1.14,1,.8.8,0,0,0,.61.22.37.37,0,0,0,.25-.42.9.9,0,0,0-.29-.37L14,16.13l.24-.26,0,.06c.44.41.9.81,1.36,1.19a1.35,1.35,0,0,0,.59.31.4.4,0,0,0,.46-.27C16.7,17,16.53,16.8,16.37,16.65Z"/>
    <path class="cls-2" d="M18.28,12.51c-.13,0-.55,0-.66,0H15.8a3.34,3.34,0,0,1-.88-.07,3.32,3.32,0,0,1-.95-.5,3.12,3.12,0,0,0-1-.49,2.89,2.89,0,0,0-.65-.05h-.29a3.38,3.38,0,0,0-.45,0,1.15,1.15,0,0,0-.59.22c-.13.08-.28.15-.42.22a1.93,1.93,0,0,0-.76.51,2,2,0,0,0-.26.5l-.43,1a.08.08,0,0,0,0,0l0,0a1.15,1.15,0,0,0,.31.11h.07a1,1,0,0,0,.67-.42l.14-.18a1.86,1.86,0,0,1,.53-.55,1.52,1.52,0,0,1,.75-.16h.28a1.57,1.57,0,0,1,.52.08,1.65,1.65,0,0,1,.46.32l3.4,3a.66.66,0,0,0,.22.15h1.12l.78,0c0-.61,0-1.25-.07-1.88S18.28,13.12,18.28,12.51Z"/>
    <path class="cls-2" d="M7.78,17.21a.4.4,0,0,0,.42,0,.87.87,0,0,0,.28-.37l.31-.58a.57.57,0,0,0,.09-.36.28.28,0,0,0-.24-.2H8.58c-.45,0-.73.6-.93,1.13a.8.8,0,0,0,0,.15A.3.3,0,0,0,7.78,17.21Z"/>
    <path class="cls-2" d="M10.11,16.07a.26.26,0,0,0-.2-.31l-.11,0H9.73a.76.76,0,0,0-.4.28,5.83,5.83,0,0,0-.43.73c-.05.1-.1.2-.16.3a1.09,1.09,0,0,0-.14.38.31.31,0,0,0,.09.22.31.31,0,0,0,.23.11.38.38,0,0,0,.29-.12,1.13,1.13,0,0,0,.15-.21l.4-.74.13-.2A2.19,2.19,0,0,0,10.11,16.07Z"/>
    <path class="cls-2" d="M11.36,15.93a.29.29,0,0,0-.2-.17l-.12,0c-.23,0-.44.17-.63.5l-.7,1.23a.7.7,0,0,0-.14.45.34.34,0,0,0,.31.28.35.35,0,0,0,.28-.09.69.69,0,0,0,.16-.22l1-1.67a.52.52,0,0,0,.08-.19A.16.16,0,0,0,11.36,15.93Z"/>
    <path class="cls-2" d="M12.3,15.88h-.11c-.31,0-.49.33-.65.63l-.08.13L10.68,18a1.21,1.21,0,0,0-.09.2.26.26,0,0,0,0,.21.33.33,0,0,0,.18.14.49.49,0,0,0,.46-.05,1.13,1.13,0,0,0,.22-.27l1-1.6a.7.7,0,0,0,.14-.48A.34.34,0,0,0,12.3,15.88Z"/>
    <path class="cls-2" d="M14.85,12h0c.09-.07.38-.48.35-.64t0,0a1.8,1.8,0,0,0-.47,0h-1c.37.25.76.47,1.14.68Z"/>
  </g>
</svg>
