<?xml version="1.0" encoding="utf-8"?>
<!-- Generator: Adobe Illustrator 23.1.1, SVG Export Plug-In . SVG Version: 6.00 Build 0)  -->
<svg version="1.1" id="ic-transaction-staked" xmlns="http://www.w3.org/2000/svg" xmlns:xlink="http://www.w3.org/1999/xlink"
	 width="24" height="24" x="0px" y="0px" viewBox="0 0 24 24" style="enable-background:new 0 0 24 24;" xml:space="preserve">
<style type="text/css">
	.st0{fill:none;stroke:#707070;stroke-width:2;stroke-miterlimit:10;}
	.st1{fill:#707070;}
</style>
<g>
	<path class="st1" d="M17.8,15.6l-3.1-2.8l-1.5-1.3c-0.2-0.2-0.4-0.3-0.6-0.4c-0.4-0.2-0.9-0.2-1.3-0.1c-0.1,0-0.2,0-0.3,0.1
		c-0.1,0.1-0.2,0.2-0.3,0.3c-0.3,0.5-0.7,0.9-1.2,1.2c-0.5,0.3-1.2,0.2-1.6-0.3l0,0l0,0c0.2-0.3,0.3-0.7,0.4-1
		c0.1-0.6,0.4-1.2,0.8-1.7C9.2,9.2,9.6,9,10,8.8l0.3-0.1C9.4,8.6,8.5,8.8,7.7,9.3L7.5,9.5C7.3,9.7,7,9.9,6.7,10
		c-0.3,0.1-0.6,0.1-0.8,0.1h-2c0,0,0,0,0,0.1v4.9c0,0,0,0.1,0,0.1h2.2C6.3,14.7,6.6,14.3,7,14c0.3-0.1,0.6-0.1,0.9,0
		c0.1,0.1,0.3,0.2,0.3,0.3C8.5,14.1,8.8,14,9.1,14c0.3,0,0.6,0.1,0.8,0.4c0.2-0.2,0.5-0.4,0.8-0.4l0,0c0.3,0,0.6,0.2,0.8,0.4
		c0.3-0.2,0.6-0.3,1-0.2c0.4,0.1,0.7,0.5,0.7,0.9c0,0.2-0.1,0.4-0.2,0.6c-0.4,0.7-0.8,1.3-1.2,2c0.3,0.4,0.7,0.7,1.2,0.7l0,0
		c0.2,0,0.3-0.1,0.4-0.2c0-0.1,0-0.2,0-0.2c0-0.1-0.1-0.2-0.2-0.2L12.5,17l0.3-0.3l0.8,0.7c0.2,0.2,0.5,0.4,0.8,0.4l0,0
		c0.2,0,0.3-0.1,0.4-0.2c0.1-0.1,0.1-0.2,0.1-0.3c-0.1-0.1-0.1-0.2-0.3-0.3l-1-1V16V16l0.2-0.2v-0.1l0.1,0.1c0.5,0.5,1,0.9,1.5,1.3
		c0.2,0.2,0.5,0.3,0.8,0.3c0.2-0.1,0.4-0.3,0.3-0.6c-0.1-0.2-0.2-0.4-0.4-0.5L14.6,15l0.3-0.3v0.1c0.6,0.5,1.2,1.1,1.8,1.6
		c0.2,0.2,0.5,0.3,0.8,0.4c0.3,0.1,0.5-0.1,0.6-0.4C18.2,16.1,18,15.8,17.8,15.6z"/>
	<path class="st1" d="M20.3,10.2c-0.2,0-0.7,0-0.9,0H17c-0.4,0-0.8,0-1.2-0.1C15.4,10,15,9.7,14.6,9.4c-0.4-0.3-0.8-0.5-1.3-0.6
		c-0.3-0.1-0.6-0.1-0.9-0.1h-0.4c-0.2,0-0.4,0-0.6,0c-0.3,0-0.6,0.1-0.8,0.3c-0.2,0.1-0.4,0.2-0.6,0.3c-0.4,0.1-0.7,0.4-1,0.7
		c-0.1,0.2-0.3,0.4-0.3,0.7L8.2,12l0,0l0,0c0.1,0.1,0.3,0.1,0.4,0.1h0.1c0.4-0.1,0.7-0.3,0.9-0.6l0.2-0.2c0.2-0.3,0.4-0.5,0.7-0.7
		c0.3-0.2,0.6-0.2,1-0.2h0.4c0.2,0,0.5,0,0.7,0.1c0.2,0.1,0.4,0.2,0.6,0.4l4.5,4c0.1,0.1,0.2,0.2,0.3,0.2h1.5h1c0-0.8,0-1.6-0.1-2.5
		C20.2,11.8,20.3,11,20.3,10.2z"/>
	<path class="st1" d="M6.5,16.4c0.2,0.1,0.4,0.1,0.6,0c0.2-0.1,0.3-0.3,0.4-0.5l0.4-0.8c0.1-0.1,0.1-0.3,0.1-0.5
		c0-0.1-0.2-0.2-0.3-0.3H7.5c-0.6,0-1,0.8-1.2,1.5c0,0.1,0,0.1,0,0.2C6.3,16.2,6.4,16.3,6.5,16.4z"/>
	<path class="st1" d="M9.5,14.9c0-0.2-0.1-0.4-0.3-0.4c0,0,0,0,0,0H9.1H9c-0.2,0.1-0.4,0.2-0.5,0.4c-0.2,0.3-0.4,0.6-0.6,1
		c-0.1,0.1-0.1,0.3-0.2,0.4c-0.1,0.2-0.2,0.3-0.2,0.5c0,0.1,0,0.2,0.1,0.3c0.1,0.1,0.2,0.1,0.3,0.1c0.1,0,0.3-0.1,0.4-0.2
		c0.1-0.1,0.1-0.2,0.2-0.3l0.5-1l0.2-0.3C9.4,15.3,9.4,15.1,9.5,14.9z"/>
	<path class="st1" d="M11.2,14.7c0-0.1-0.1-0.2-0.3-0.2h-0.2c-0.3,0-0.6,0.2-0.8,0.7L9,16.8c-0.1,0.2-0.2,0.4-0.2,0.6
		c0,0.2,0.2,0.4,0.4,0.4c0.1,0,0.3,0,0.4-0.1c0.1-0.1,0.2-0.2,0.2-0.3l1.3-2.2c0.1-0.1,0.1-0.2,0.1-0.3
		C11.2,14.8,11.2,14.7,11.2,14.7z"/>
	<path class="st1" d="M12.4,14.6h-0.1c-0.4,0-0.6,0.4-0.9,0.8l-0.1,0.2l-1,1.8c0,0.1-0.1,0.2-0.1,0.3c0,0.1,0,0.2,0,0.3
		c0.1,0.1,0.1,0.2,0.2,0.2c0.2,0.1,0.4,0.1,0.6-0.1c0.1-0.1,0.2-0.2,0.3-0.4l1.3-2.1c0.1-0.2,0.2-0.4,0.2-0.6
		C12.8,14.8,12.6,14.7,12.4,14.6z"/>
	<path class="st1" d="M15.8,9.5L15.8,9.5c0.1-0.1,0.5-0.6,0.5-0.8c0-0.1,0-0.1,0,0c-0.2,0-0.4,0-0.6,0h-1.3
		C14.8,9,15.3,9.3,15.8,9.5L15.8,9.5z"/>
</g>
</svg>
