<?xml version="1.0"?>
<svg width="100" height="100" xmlns="http://www.w3.org/2000/svg" xmlns:svg="http://www.w3.org/2000/svg" xmlns:se="http://svg-edit.googlecode.com">
 <defs>
  <style type="text/css">.cls-1{fill:#1e3c12}.cls-2{fill:#a09ea5}.cls-3{fill:none}</style>
 </defs>
 <g class="layer">
  <title>Layer 1</title>
  <path class="cls-1" d="m50,26a24,24 0 1 0 24,24a24,24 0 0 0 -24,-24zm0,42a18,18 0 1 1 18,-18a18,18 0 0 1 -18,18z" data-name="Path 18988" id="Path_18988"/>
  <g data-name="Group 9034" id="Group_9034">
   <path class="cls-2" d="m50,31a19,19 0 1 0 19,19a19.021,19.021 0 0 0 -19,-19zm0,36a17,17 0 1 1 17,-17a17.019,17.019 0 0 1 -17,17z" data-name="Path 18990" id="Path_18990"/>
   <path class="cls-2" d="m0,0l2,0l0,4l-2,0l0,-4z" data-name="Rectangle 4693" id="Rectangle_4693" transform="translate(83 56)"/>
   <path class="cls-2" d="m0,0l2,0l0,8l-2,0l0,-8z" data-name="Rectangle 4694" id="Rectangle_4694" transform="translate(83 44)"/>
   <path class="cls-2" d="m0,0l2,0l0,8l-2,0l0,-8z" data-name="Rectangle 4695" id="Rectangle_4695" transform="translate(15 48)"/>
   <path class="cls-2" d="m0,0l2,0l0,4l-2,0l0,-4z" data-name="Rectangle 4696" id="Rectangle_4696" transform="translate(15 40)"/>
   <path class="cls-2" d="m95.162,71l-10.162,0l0,-7l-2,0l0,9l7.838,0l-14.838,17.456l-14.838,-17.456l6.838,0l0,-2l-4.461,0a24.989,24.989 0 0 0 -22.4,-44.374l-17.139,-20.17l-19.162,22.544l10.162,0l0,7l2,0l0,-9l-7.838,0l14.838,-17.456l14.838,17.456l-6.838,0l0,2l4.461,0a24.989,24.989 0 0 0 22.4,44.374l17.139,20.17l19.162,-22.544zm-68.162,-21a23,23 0 1 1 23,23a23.026,23.026 0 0 1 -23,-23z" data-name="Path 18991" id="Path_18991"/>
  </g>
  <path class="cls-3" d="m0,0l100,0l0,100l-100,0l0,-100z" data-name="Rectangle 4697" id="Rectangle_4697"/>
 </g>
</svg>