<svg xmlns="http://www.w3.org/2000/svg" id="ic_empty_multisend" width="100" height="100" viewBox="0 0 100 100">
    <defs>
        <style type="text/css">
            .cls-1{fill:#d6d6d6}.cls-2{fill:#666}.cls-3{fill:none}
        </style>
    </defs>
    <g id="Group_9031" data-name="Group 9031">
        <g id="Group_9029" data-name="Group 9029">
            <path id="Rectangle_4683" d="M0 0h10v9H0z" class="cls-1" data-name="Rectangle 4683" transform="translate(45 18)"/>
            <g id="Group_9028" data-name="Group 9028">
                <path id="Rectangle_4684" d="M0 0h6v10H0z" class="cls-1" data-name="Rectangle 4684" transform="translate(14 66)"/>
                <path id="Rectangle_4685" d="M0 0h6v10H0z" class="cls-1" data-name="Rectangle 4685" transform="translate(80 66)"/>
                <path id="Rectangle_4686" d="M0 0h6v10H0z" class="cls-1" data-name="Rectangle 4686" transform="translate(47 66)"/>
            </g>
        </g>
        <g id="Group_9030" data-name="Group 9030">
            <path id="Rectangle_4687" d="M0 0h6.787v1.412H0z" class="cls-2" data-name="Rectangle 4687" transform="translate(43.382 35.772)"/>
            <path id="Path_18985" d="M46.613 41.941h4.459a5.256 5.256 0 0 0 5.546-5.506A5.2 5.2 0 0 0 51.058 31h-6.519v1.609L49 32.6h1.863a3.607 3.607 0 0 1 3.937 3.84 3.655 3.655 0 0 1-3.965 3.911H44.85V49h1.763z" class="cls-2" data-name="Path 18985"/>
            <path id="Rectangle_4688" d="M0 0h2v4H0z" class="cls-2" data-name="Rectangle 4688" transform="translate(67 40)"/>
            <circle id="Ellipse_626" cx="1" cy="1" r="1" class="cls-2" data-name="Ellipse 626" transform="translate(49 72)"/>
            <circle id="Ellipse_627" cx="1" cy="1" r="1" class="cls-2" data-name="Ellipse 627" transform="translate(82 72)"/>
            <path id="Rectangle_4689" d="M0 0h4v2H0z" class="cls-2" data-name="Rectangle 4689" transform="translate(32 58)"/>
            <path id="Path_18986" d="M16 65h-3v3H7v4h2v-2h4v7h8v-7h4v21H9V76H7v17h20V68h-6v-3h-3v-5h10v-2H16zm3 2v8h-4v-8z" class="cls-2" data-name="Path 18986"/>
            <circle id="Ellipse_628" cx="1" cy="1" r="1" class="cls-2" data-name="Ellipse 628" transform="translate(16 72)"/>
            <path id="Path_18987" d="M87 68v-3h-3v-7H51v-5h18v-5h-2v3H33V28h34v8h2v-8h4V17H59.46A5.994 5.994 0 1 0 50 9.69 5.995 5.995 0 1 0 40.54 17H27v11h4v25h18v5h-9v2h9v5h-3v3h-6v16h2V70h4v7h8v-7h4v21H42v-3h-2v5h20V68h-6v-3h-3v-5h31v5h-3v3h-6v12h2V70h4v7h8v-7h4v21H75v-7h-2v9h20V68zM71 19v7H56v-7zm-20-6a4 4 0 1 1 4 4h-4zm0 6h3v7h-8v-7h5zM45 9a4 4 0 0 1 4 4v4h-4a4 4 0 0 1 0-8zM29 26v-7h15v7H29zm23 41v8h-4v-8zm33 8h-4v-8h4z" class="cls-2" data-name="Path 18987"/>
        </g>
    </g>
    <path id="Rectangle_4690" d="M0 0h100v100H0z" class="cls-3" data-name="Rectangle 4690"/>
</svg>
