<?xml version="1.0" encoding="utf-8"?>
<!-- Generator: Adobe Illustrator 23.1.1, SVG Export Plug-In . SVG Version: 6.00 Build 0)  -->
<svg version="1.1" id="ic-transaction-staked" xmlns="http://www.w3.org/2000/svg" xmlns:xlink="http://www.w3.org/1999/xlink"
     width="24" height="24" x="0px" y="0px" viewBox="0 0 24 24" style="enable-background:new 0 0 24 24;" xml:space="preserve">
<style type="text/css">
	.st0{fill:#fff;}
	.st1{fill:none;stroke:#fff;stroke-width:2;stroke-miterlimit:10;}
</style>
    <title>contract-icon-reward</title>
    <g>
	<path class="st0" d="M17.8,15.4l-3.1-2.8l-1.5-1.3c-0.2-0.2-0.4-0.3-0.6-0.4c-0.4-0.2-0.9-0.2-1.3-0.1c-0.1,0-0.2,0-0.3,0.1
		c-0.1,0.1-0.2,0.2-0.3,0.3c-0.3,0.5-0.7,0.9-1.2,1.2c-0.5,0.3-1.2,0.2-1.6-0.3l0,0l0,0c0.2-0.3,0.3-0.7,0.4-1
		C8.3,10.4,8.6,9.8,9,9.3C9.3,9,9.7,8.8,10,8.6l0.3-0.1C9.4,8.4,8.5,8.6,7.8,9.1L7.5,9.3C7.3,9.5,7.1,9.6,6.8,9.7
		C6.5,9.8,6.2,9.8,6,9.8H4c0,0-1.2-0.2-1.2-0.1l-0.3,4.7c0,0,0.4,0.4,0.4,0.4l3.3,0c0.2-0.5,0.5-0.9,0.9-1.1c0.3-0.1,0.6-0.1,0.9,0
		c0.1,0.1,0.3,0.2,0.3,0.3c0.2-0.2,0.5-0.4,0.8-0.4c0.3,0,0.6,0.1,0.8,0.4c0.2-0.2,0.5-0.4,0.8-0.4l0,0c0.3,0,0.6,0.2,0.8,0.4
		c0.3-0.2,0.6-0.3,1-0.2c0.4,0.1,0.7,0.5,0.7,0.9c0,0.2-0.1,0.4-0.2,0.6c-0.4,0.7-0.8,1.3-1.2,2c0.3,0.4,0.7,0.7,1.2,0.7l0,0
		c0.2,0,0.3-0.1,0.4-0.2c0-0.1,0-0.2,0-0.2c0-0.1-0.1-0.2-0.2-0.2l-0.7-0.7l0.3-0.2l0.8,0.7c0.2,0.2,0.5,0.4,0.8,0.4l0,0
		c0.2,0,0.3-0.1,0.4-0.2c0.1-0.1,0.1-0.2,0.1-0.3c-0.1-0.1-0.1-0.2-0.3-0.3l-1-1v-0.1v-0.1l0.2-0.2v-0.1l0.1,0.1
		c0.5,0.5,1,0.9,1.5,1.3c0.2,0.2,0.5,0.3,0.8,0.3c0.2-0.1,0.4-0.3,0.3-0.6c-0.1-0.2-0.2-0.4-0.4-0.5l-1.5-1.4l0.3-0.3v0.1
		c0.6,0.5,1.2,1.1,1.8,1.6c0.2,0.2,0.5,0.3,0.8,0.4c0.3,0.1,0.5-0.1,0.6-0.4C18.2,15.9,18,15.6,17.8,15.4z"/>
        <path class="st0" d="M21.1,9.9c-0.2,0-1.5,0.1-1.6,0.1h-2.4c-0.4,0-0.8,0-1.2-0.1c-0.4-0.1-0.9-0.4-1.2-0.7
		c-0.4-0.3-0.8-0.5-1.3-0.6c-0.3-0.1-0.6-0.1-0.9-0.1h-0.4c-0.2,0-0.4,0-0.6,0c-0.3,0-0.5,0.1-0.8,0.3c-0.2,0.1-0.4,0.2-0.6,0.3
		c-0.4,0.1-0.7,0.4-1,0.7C9,9.9,8.9,10.2,8.8,10.4l-0.6,1.3l0,0l0,0c0.1,0.1,0.3,0.1,0.4,0.1h0.1c0.4-0.1,0.7-0.3,0.9-0.6l0.2-0.2
		c0.2-0.3,0.4-0.5,0.7-0.7c0.3-0.2,0.6-0.2,1-0.2h0.4c0.2,0,0.5,0,0.7,0.1c0.2,0.1,0.4,0.2,0.6,0.4l4.5,3.9c0.1,0.1,0.2,0.2,0.3,0.2
		h1.5l1.8-0.1c0-0.8,0.2-1.6,0.1-2.4S21.1,10.7,21.1,9.9z"/>
        <path class="st0" d="M6.5,16.1c0.2,0.1,0.4,0.1,0.6,0c0.2-0.1,0.3-0.3,0.4-0.5l0.4-0.8C7.9,14.7,8,14.6,8,14.4
		c0-0.1-0.2-0.2-0.3-0.3H7.6c-0.6,0-1,0.8-1.2,1.5c0,0.1,0,0.1,0,0.2C6.4,16,6.4,16.1,6.5,16.1z"/>
        <path class="st0" d="M9.6,14.6c0-0.2-0.1-0.4-0.3-0.4c0,0,0,0,0,0H9.2H9.1c-0.2,0.1-0.4,0.2-0.5,0.4c-0.2,0.3-0.4,0.6-0.6,1
		c-0.1,0.1-0.1,0.3-0.2,0.4c-0.1,0.2-0.2,0.3-0.2,0.5c0,0.1,0,0.2,0.1,0.3c0.1,0.1,0.2,0.1,0.3,0.1c0.1,0,0.3-0.1,0.4-0.2
		c0.1-0.1,0.1-0.2,0.2-0.3l0.5-1l0.2-0.3C9.4,15,9.5,14.8,9.6,14.6z"/>
        <path class="st0" d="M11.2,14.5c0-0.1-0.1-0.2-0.3-0.2h-0.2c-0.3,0-0.6,0.2-0.8,0.7l-0.9,1.6c-0.1,0.2-0.2,0.4-0.2,0.6
		c0,0.2,0.2,0.4,0.4,0.4c0.1,0,0.3,0,0.4-0.1c0.1-0.1,0.2-0.2,0.2-0.3l1.3-2.2c0.1-0.1,0.1-0.2,0.1-0.2
		C11.3,14.6,11.3,14.5,11.2,14.5z"/>
        <path class="st0" d="M12.5,14.4h-0.1c-0.4,0-0.6,0.4-0.9,0.8l-0.1,0.2l-1,1.8c0,0.1-0.1,0.2-0.1,0.3c0,0.1,0,0.2,0,0.3
		c0.1,0.1,0.1,0.2,0.2,0.2c0.2,0.1,0.4,0.1,0.6-0.1c0.1-0.1,0.2-0.2,0.3-0.4l1.3-2.1c0.1-0.2,0.2-0.4,0.2-0.6
		C12.8,14.6,12.6,14.4,12.5,14.4z"/>
        <path class="st0" d="M15.8,9.3L15.8,9.3c0.1-0.1,0.5-0.6,0.5-0.8c0-0.1,0-0.1,0,0c-0.2,0-0.4,0-0.6,0h-1.3
		C14.8,8.8,15.3,9.1,15.8,9.3L15.8,9.3z"/>
</g>
    <circle class="st1" cx="12" cy="12.2" r="10"/>
</svg>
