<?xml version="1.0" encoding="utf-8"?>
<!-- Generator: Adobe Illustrator 23.1.1, SVG Export Plug-In . SVG Version: 6.00 Build 0)  -->
<svg version="1.1" id="ic-transaction-staked" xmlns="http://www.w3.org/2000/svg" xmlns:xlink="http://www.w3.org/1999/xlink"
	 x="0px" y="0px" viewBox="0 0 24 24" style="enable-background:new 0 0 24 24;" xml:space="preserve">
<style type="text/css">
	.st0{fill:#FFFFFF;}
	.st1{fill:none;}
	.st2{fill:#FFFFFF;}
</style>
	<g>
	<path class="st0" d="M18.3,13L18.3,13L18.3,13z"/>
</g>
	<path class="st1" d="M10.2,5.8l-0.6-1C9.5,4.5,9.2,4.2,8.9,4.1c-0.1,0-0.3-0.1-0.4-0.1c-0.2,0-0.4,0-0.5,0.1C7.3,4.5,7,5.2,7.3,5.8
	H10.2z"/>
	<path class="st1" d="M16.9,4.9c-0.1-0.3-0.4-0.6-0.7-0.7C16,4.1,15.6,4,15.3,4.1c-0.3,0.1-0.6,0.3-0.8,0.6l-0.6,1h2.9
	C17,5.5,17,5.2,16.9,4.9z"/>
	<rect x="5.9" y="10.1" class="st1" width="12.3" height="9.6"/>
	<rect x="3.6" y="7.1" class="st1" width="17" height="1.6"/>
	<g>
	<path class="st1" d="M10.2,5.8l-0.6-1C9.5,4.5,9.2,4.2,8.9,4.1c-0.1,0-0.3-0.1-0.4-0.1c-0.2,0-0.4,0-0.5,0.1C7.3,4.5,7,5.2,7.3,5.8
		H10.2z"/>
		<path class="st1" d="M16.9,4.9c-0.1-0.3-0.4-0.6-0.7-0.7C16,4.1,15.6,4,15.3,4.1c-0.3,0.1-0.6,0.3-0.8,0.6l-0.6,1h2.9
		C17,5.5,17,5.2,16.9,4.9z"/>
		<rect x="5.9" y="10.1" class="st1" width="12.3" height="9.6"/>
		<path class="st2" d="M22.2,5.8h-3.3C19,5.3,19,4.8,18.8,4.3C18.5,3.6,18,3,17.2,2.6c-0.8-0.4-1.7-0.5-2.5-0.2
		c-0.8,0.3-1.5,0.8-1.9,1.5L12.1,5l-0.7-1.2C11,3.2,10.3,2.7,9.5,2.4C8.6,2.1,7.7,2.2,7,2.6C5.6,3.2,5,4.5,5.2,5.8H1.9v4.4h1.9
		l0.1,11.8h16.3l-0.1-11.8h2.1V5.8z M14.5,4.7c0.2-0.3,0.5-0.5,0.8-0.6C15.6,4,16,4.1,16.3,4.2c0.3,0.2,0.6,0.4,0.7,0.7
		C17,5.2,17,5.5,16.9,5.8h-2.9L14.5,4.7z M7.9,4.2c0.2-0.1,0.3-0.1,0.5-0.1c0.1,0,0.3,0,0.4,0.1c0.3,0.1,0.6,0.3,0.8,0.6l0.6,1H7.3
		C7,5.2,7.3,4.5,7.9,4.2z M18.2,19.7H5.9v-9.6h12.3V19.7z M20.6,8.8h-17V7.1h17V8.8z"/>
</g>
	<path class="st2" d="M15.6,16.5l-1.1-0.6l1-0.2c0.2,0,0.3-0.2,0.2-0.4c0-0.2-0.2-0.3-0.4-0.2l-1.6,0.4l-1.1-0.6l1.1-0.6l1.6,0.4h0.1
	c0.1,0,0.3-0.1,0.3-0.2c0-0.2-0.1-0.3-0.2-0.4l-1-0.2l1.1-0.6c0.2-0.1,0.2-0.3,0.1-0.4c-0.1-0.1-0.3-0.2-0.4-0.1l-1.1,0.6l0.3-0.9
	c0-0.2-0.1-0.3-0.2-0.4c-0.2,0-0.4,0.1-0.4,0.2l-0.4,1.5l-1.1,0.6v-1.2l1.2-1.1c0.1-0.1,0.1-0.3,0-0.4c-0.1-0.1-0.3-0.1-0.5,0
	l-0.7,0.7v-1.2c0-0.2-0.1-0.3-0.3-0.3s-0.3,0.1-0.3,0.3v1.2L11,11.6c-0.1-0.1-0.3-0.1-0.5,0c-0.1,0.1-0.1,0.3,0,0.4l1.2,1.1v1.2
	l-1.1-0.6l-0.4-1.5c0-0.2-0.2-0.3-0.4-0.2c-0.2,0-0.3,0.2-0.2,0.4l0.3,0.9l-1.1-0.6c-0.2-0.1-0.4,0-0.4,0.1c-0.1,0.1,0,0.3,0.1,0.4
	l1.1,0.6l-1,0.2c-0.2,0-0.3,0.2-0.2,0.4c0,0.1,0.2,0.2,0.3,0.2h0.1l1.6-0.4l1.1,0.6l-1.1,0.6L8.8,15c-0.2,0-0.4,0.1-0.4,0.2
	c0,0.2,0.1,0.3,0.2,0.4l1,0.2l-1.1,0.6c-0.2,0.1-0.2,0.3-0.1,0.4C8.5,16.9,8.6,17,8.7,17s0.1,0,0.2,0l1-0.6l-0.3,1
	c0,0.2,0.1,0.3,0.2,0.4h0.1c0.1,0,0.3-0.1,0.3-0.2l0.4-1.5l1.1-0.6v1.2l-1.2,1.1c-0.1,0.1-0.1,0.3,0,0.4s0.3,0.1,0.5,0l0.7-0.7v1.2
	c0,0.2,0.1,0.3,0.3,0.3s0.3-0.1,0.3-0.3v-1.2l0.7,0.7c0.1,0.1,0.1,0.1,0.2,0.1c0.1,0,0.2,0,0.2-0.1c0.1-0.1,0.1-0.3,0-0.4l-1.2-1.1
	v-1.3l1.1,0.6l0.4,1.5c0,0.1,0.2,0.2,0.3,0.2h0.1c0.2,0,0.3-0.2,0.2-0.4l0-0.9l1.1,0.6c0.1,0,0.1,0,0.2,0c0.1,0,0.2-0.1,0.3-0.2
	C15.9,16.8,15.8,16.6,15.6,16.5z"/>
</svg>
