<svg xmlns="http://www.w3.org/2000/svg" id="ic_light_theme" width="24" height="24" viewBox="0 0 24 24" shape-rendering="geometricPrecision">
    <defs>
        <style type="text/css">
            .cls-1{fill:#fff}.cls-2{fill:none}
        </style>
    </defs>
    <g id="Group_8846" data-name="Group 8846">
        <path id="Path_18900" d="M12 7a5 5 0 1 0 5 5 5.006 5.006 0 0 0-5-5zm0 8a3 3 0 1 1 3-3 3 3 0 0 1-3 3z" class="cls-1" data-name="Path 18900"/>
        <path id="Rectangle_4418" d="M0 0h2v4H0z" class="cls-1" data-name="Rectangle 4418" transform="translate(11 2)"/>
        <path id="Rectangle_4419" d="M0 0h2v4H0z" class="cls-1" data-name="Rectangle 4419" transform="translate(11 18)"/>
        <path id="Rectangle_4420" d="M0 0h4v2H0z" class="cls-1" data-name="Rectangle 4420" transform="translate(2 11)"/>
        <path id="Rectangle_4421" d="M0 0h4v2H0z" class="cls-1" data-name="Rectangle 4421" transform="translate(18 11)"/>
        <path id="Rectangle_4422" d="M0 0h2v4H0z" class="cls-1" data-name="Rectangle 4422" transform="rotate(-45 8.914 -2.278)"/>
        <path id="Rectangle_4423" d="M0 0h2v4H0z" class="cls-1" data-name="Rectangle 4423" transform="rotate(-45 28.228 -10.279)"/>
        <path id="Rectangle_4424" d="M0 0h4v2H0z" class="cls-1" data-name="Rectangle 4424" transform="rotate(-45 24.278 4.086)"/>
        <path id="Rectangle_4425" d="M0 0h4v2H0z" class="cls-1" data-name="Rectangle 4425" transform="rotate(-45 16.278 -15.229)"/>
    </g>
    <path id="Rectangle_4426" d="M0 0h24v24H0z" class="cls-2" data-name="Rectangle 4426"/>
</svg>
