<svg xmlns="http://www.w3.org/2000/svg" id="ic_piv" width="24" height="24" viewBox="0 0 24 24">
    <defs>
        <style type="text/css">
            .cls-1{fill:#5c4b7d}.cls-2{fill:none}
        </style>
    </defs>
    <g id="Group_8935" data-name="Group 8935">
        <g id="Group_8934" data-name="Group 8934">
            <path id="Path_18928" d="M12 2a10 10 0 1 0 10 10A10 10 0 0 0 12 2zm0 19.25A9.25 9.25 0 1 1 21.25 12 9.25 9.25 0 0 1 12 21.25z" class="cls-1" data-name="Path 18928"/>
            <path id="Path_18929" d="M12 3.5a8.5 8.5 0 1 0 8.5 8.5A8.5 8.5 0 0 0 12 3.5zM8 9.181h4.525v.941H8zm5.127 4.113h-2.973V18H8.978v-5.77h3.989a2.436 2.436 0 0 0 2.644-2.607 2.4 2.4 0 0 0-2.625-2.56h-1.242l-2.973.01V6h4.346a3.47 3.47 0 0 1 3.707 3.623 3.5 3.5 0 0 1-3.697 3.671z" class="cls-1" data-name="Path 18929"/>
        </g>
    </g>
    <path id="Rectangle_4543" d="M0 0h24v24H0z" class="cls-2" data-name="Rectangle 4543"/>
</svg>
