<svg xmlns="http://www.w3.org/2000/svg" id="ic_dark_staking_on" width="100" height="100" viewBox="0 0 100 100">
    <defs>
        <style type="text/css">
            .cls-1{fill:#413d4a}.cls-2{fill:#a09ea5}.cls-3{fill:none}
        </style>
    </defs>
    <g id="Group_9053" data-name="Group 9053">
        <g id="Group_9051" data-name="Group 9051">
            <ellipse id="Ellipse_640" cx="12" cy="4" class="cls-1" data-name="Ellipse 640" rx="12" ry="4" transform="translate(68 52)"/>
            <ellipse id="Ellipse_641" cx="12" cy="4" class="cls-1" data-name="Ellipse 641" rx="12" ry="4" transform="translate(52 64)"/>
            <path id="Rectangle_4706" d="M0 0h14v14H0z" class="cls-1" data-name="Rectangle 4706" transform="translate(32 24)"/>
        </g>
        <g id="Group_9052" data-name="Group 9052">
            <path id="Rectangle_4707" d="M0 0h2v4H0z" class="cls-2" data-name="Rectangle 4707" transform="translate(12 60)"/>
            <path id="Rectangle_4708" d="M0 0h10.558v2.196H0z" class="cls-2" data-name="Rectangle 4708" transform="translate(28.706 50.422)"/>
            <path id="Path_19000" d="M40.3 57.538h-9.312V71h2.744V60.02h6.936c5.005 0 8.626-3.361 8.626-8.565 0-5.205-3.622-8.455-8.648-8.455H30.5v2.5l6.937-.022h2.9c3.687 0 6.124 2.2 6.124 5.974.003 3.824-2.434 6.086-6.161 6.086z" class="cls-2" data-name="Path 19000"/>
            <path id="Path_19001" d="M92.046 57.994A2.767 2.767 0 0 0 93 56c0-3.283-6.54-5-13-5s-13 1.717-13 5a2.767 2.767 0 0 0 .954 1.994 2.573 2.573 0 0 0 0 4 3.171 3.171 0 0 0-.774 1.151q-.58-.052-1.18-.085V39h5V23H52.644A8.993 8.993 0 1 0 39 11.9 8.994 8.994 0 1 0 25.356 23H7v16h5v17h2V39h50v24c-6.46 0-13 1.717-13 5a2.767 2.767 0 0 0 .954 1.994 2.573 2.573 0 0 0 0 4A3.325 3.325 0 0 0 51.226 75H14v-7h-2v9h39.23a3.369 3.369 0 0 0 .724.994 2.573 2.573 0 0 0 0 4 2.573 2.573 0 0 0 0 4A2.768 2.768 0 0 0 51 88c0 3.283 6.54 5 13 5 5.874 0 11.8-1.424 12.826-4.15 1.042.093 2.106.15 3.174.15 6.46 0 13-1.717 13-5a2.768 2.768 0 0 0-.954-2.006 2.573 2.573 0 0 0 0-4 2.573 2.573 0 0 0 0-4 2.573 2.573 0 0 0 0-4 2.573 2.573 0 0 0 0-4 2.573 2.573 0 0 0 0-4 2.573 2.573 0 0 0 0-4zM31 37H9V25h22zm-7-21a7 7 0 0 1 14 0v7h-7a7.008 7.008 0 0 1-7-7zm21 21H33V25h12zm-5-14v-7a7 7 0 1 1 7 7zm7 14V25h22v12H47zm4 39a2.311 2.311 0 0 0 .061.515A2.2 2.2 0 0 1 51 76zm13 15c-7.117 0-11-1.982-11-3 0-.241.247-.539.678-.849C56.179 88.37 60.1 89 64 89s7.821-.63 10.322-1.849c.431.31.678.608.678.849 0 1.018-3.883 3-11 3zm0-4c-7.117 0-11-1.982-11-3 0-.241.247-.539.678-.849C56.179 84.37 60.1 85 64 85s7.821-.63 10.322-1.849c.431.31.678.608.678.849 0 1.018-3.883 3-11 3zm0-4c-7.117 0-11-1.982-11-3 0-.241.247-.539.678-.849C56.179 80.37 60.1 81 64 81s7.821-.63 10.322-1.849c.431.31.678.608.678.849 0 1.018-3.883 3-11 3zm0-4c-7.117 0-11-1.982-11-3 0-.241.247-.539.678-.849C56.179 76.37 60.1 77 64 77s7.821-.63 10.322-1.849c.431.31.678.608.678.849 0 1.018-3.883 3-11 3zm0-4c-7.117 0-11-1.982-11-3 0-.241.247-.539.678-.849C56.179 72.37 60.1 73 64 73s7.821-.63 10.322-1.849c.431.31.678.608.678.849 0 1.018-3.883 3-11 3zm0-4c-7.117 0-11-1.982-11-3s3.883-3 11-3 11 1.982 11 3-3.883 3-11 3zm16 16c-1.207 0-2.3-.068-3.313-.168a3.446 3.446 0 0 0-.641-.838 3.219 3.219 0 0 0 .781-1.151c1.041.1 2.1.157 3.173.157 3.9 0 7.821-.63 10.322-1.849.431.31.678.608.678.849 0 1.018-3.883 3-11 3zm0-4c-1.207 0-2.3-.068-3.313-.168a3.446 3.446 0 0 0-.641-.838 3.219 3.219 0 0 0 .781-1.151c1.041.1 2.1.157 3.173.157 3.9 0 7.821-.63 10.322-1.849.431.31.678.608.678.849 0 1.018-3.883 3-11 3zm0-4c-1.207 0-2.3-.068-3.313-.168a3.446 3.446 0 0 0-.641-.838 3.219 3.219 0 0 0 .781-1.151c1.041.1 2.1.157 3.173.157 3.9 0 7.821-.63 10.322-1.849.431.31.678.608.678.849 0 1.018-3.883 3-11 3zm0-4c-1.207 0-2.3-.068-3.313-.168a3.446 3.446 0 0 0-.641-.838 3.219 3.219 0 0 0 .781-1.151c1.041.1 2.1.157 3.173.157 3.9 0 7.821-.63 10.322-1.849.431.31.678.608.678.849 0 1.018-3.883 3-11 3zm0-4c-1.207 0-2.3-.068-3.313-.168a3.446 3.446 0 0 0-.641-.838 3.219 3.219 0 0 0 .781-1.151c1.041.1 2.1.157 3.173.157 3.9 0 7.821-.63 10.322-1.849.431.31.678.608.678.849 0 1.018-3.883 3-11 3zm0-4c-1.2 0-2.287-.067-3.3-.166-.621-1.162-2.175-2.062-4.213-2.7A31.139 31.139 0 0 0 80 65c3.9 0 7.821-.63 10.322-1.849.431.31.678.608.678.849 0 1.018-3.883 3-11 3zm-10.632-3.583a2.722 2.722 0 0 1 .31-.266 13.563 13.563 0 0 0 1.826.7 26.483 26.483 0 0 0-2.136-.434zM80 63c-7.117 0-11-1.982-11-3 0-.241.247-.539.678-.849C72.179 60.37 76.1 61 80 61s7.821-.63 10.322-1.849c.431.31.678.608.678.849 0 1.018-3.883 3-11 3zm0-4c-7.117 0-11-1.982-11-3s3.883-3 11-3 11 1.982 11 3-3.883 3-11 3z" class="cls-2" data-name="Path 19001"/>
        </g>
    </g>
    <path id="Rectangle_4709" d="M0 0h100v100H0z" class="cls-3" data-name="Rectangle 4709"/>
</svg>
