<?xml version="1.0"?>
<svg width="100" height="100" xmlns="http://www.w3.org/2000/svg" xmlns:svg="http://www.w3.org/2000/svg" xmlns:se="http://svg-edit.googlecode.com">
 <defs>
  <style type="text/css">.cls-1{fill:#1e3c12}.cls-2{fill:#a09ea5}.cls-3{fill:none}</style>
 </defs>
 <g class="layer">
  <title>Layer 1</title>
  <g data-name="Group 9053" id="svg_11">
   <g data-name="Group 9051" id="svg_12"/>
   <g data-name="Group 9052" id="svg_16"/>
  </g>
  <g data-name="Group 9051" id="svg_32">
   <ellipse class="cls-1" cx="12" cy="4" data-name="Ellipse 640" id="svg_33" rx="12" ry="4" transform="translate(68 52)"/>
   <ellipse class="cls-1" cx="12" cy="4" data-name="Ellipse 641" id="svg_34" rx="12" ry="4" transform="translate(52 64)"/>
   <path class="cls-1" d="m0,0l14,0l0,14l-14,0l0,-14z" data-name="Rectangle 4706" id="svg_35" transform="translate(32 24)"/>
  </g>
  <g data-name="Group 9052" id="svg_36">
   <path class="cls-2" d="m0,0l2,0l0,4l-2,0l0,-4z" data-name="Rectangle 4707" id="svg_37" transform="translate(12 60)"/>
   <path class="cls-2" d="m92.046,57.994a2.767,2.767 0 0 0 0.954,-1.994c0,-3.283 -6.54,-5 -13,-5s-13,1.717 -13,5a2.767,2.767 0 0 0 0.954,1.994a2.573,2.573 0 0 0 0,4a3.171,3.171 0 0 0 -0.774,1.151q-0.58,-0.052 -1.18,-0.085l0,-24.06l5,0l0,-16l-18.356,0a8.993,8.993 0 1 0 -13.644,-11.1a8.994,8.994 0 1 0 -13.644,11.1l-18.356,0l0,16l5,0l0,17l2,0l0,-17l50,0l0,24c-6.46,0 -13,1.717 -13,5a2.767,2.767 0 0 0 0.954,1.994a2.573,2.573 0 0 0 0,4a3.325,3.325 0 0 0 -0.728,1.006l-37.226,0l0,-7l-2,0l0,9l39.23,0a3.369,3.369 0 0 0 0.724,0.994a2.573,2.573 0 0 0 0,4a2.573,2.573 0 0 0 0,4a2.768,2.768 0 0 0 -0.954,2.006c0,3.283 6.54,5 13,5c5.874,0 11.8,-1.424 12.826,-4.15c1.042,0.093 2.106,0.15 3.174,0.15c6.46,0 13,-1.717 13,-5a2.768,2.768 0 0 0 -0.954,-2.006a2.573,2.573 0 0 0 0,-4a2.573,2.573 0 0 0 0,-4a2.573,2.573 0 0 0 0,-4a2.573,2.573 0 0 0 0,-4a2.573,2.573 0 0 0 0,-4a2.573,2.573 0 0 0 0,-4zm-61.046,-20.994l-22,0l0,-12l22,0l0,12zm-7,-21a7,7 0 0 1 14,0l0,7l-7,0a7.008,7.008 0 0 1 -7,-7zm21,21l-12,0l0,-12l12,0l0,12zm-5,-14l0,-7a7,7 0 1 1 7,7l-7,0zm7,14l0,-12l22,0l0,12l-22,0zm4,39a2.311,2.311 0 0 0 0.061,0.515a2.2,2.2 0 0 1 -0.061,-0.515zm13,15c-7.117,0 -11,-1.982 -11,-3c0,-0.241 0.247,-0.539 0.678,-0.849c2.501,1.219 6.422,1.849 10.322,1.849s7.821,-0.63 10.322,-1.849c0.431,0.31 0.678,0.608 0.678,0.849c0,1.018 -3.883,3 -11,3zm0,-4c-7.117,0 -11,-1.982 -11,-3c0,-0.241 0.247,-0.539 0.678,-0.849c2.501,1.219 6.422,1.849 10.322,1.849s7.821,-0.63 10.322,-1.849c0.431,0.31 0.678,0.608 0.678,0.849c0,1.018 -3.883,3 -11,3zm0,-4c-7.117,0 -11,-1.982 -11,-3c0,-0.241 0.247,-0.539 0.678,-0.849c2.501,1.219 6.422,1.849 10.322,1.849s7.821,-0.63 10.322,-1.849c0.431,0.31 0.678,0.608 0.678,0.849c0,1.018 -3.883,3 -11,3zm0,-4c-7.117,0 -11,-1.982 -11,-3c0,-0.241 0.247,-0.539 0.678,-0.849c2.501,1.219 6.422,1.849 10.322,1.849s7.821,-0.63 10.322,-1.849c0.431,0.31 0.678,0.608 0.678,0.849c0,1.018 -3.883,3 -11,3zm0,-4c-7.117,0 -11,-1.982 -11,-3c0,-0.241 0.247,-0.539 0.678,-0.849c2.501,1.219 6.422,1.849 10.322,1.849s7.821,-0.63 10.322,-1.849c0.431,0.31 0.678,0.608 0.678,0.849c0,1.018 -3.883,3 -11,3zm0,-4c-7.117,0 -11,-1.982 -11,-3s3.883,-3 11,-3s11,1.982 11,3s-3.883,3 -11,3zm16,16c-1.207,0 -2.3,-0.068 -3.313,-0.168a3.446,3.446 0 0 0 -0.641,-0.838a3.219,3.219 0 0 0 0.781,-1.151c1.041,0.1 2.1,0.157 3.173,0.157c3.9,0 7.821,-0.63 10.322,-1.849c0.431,0.31 0.678,0.608 0.678,0.849c0,1.018 -3.883,3 -11,3zm0,-4c-1.207,0 -2.3,-0.068 -3.313,-0.168a3.446,3.446 0 0 0 -0.641,-0.838a3.219,3.219 0 0 0 0.781,-1.151c1.041,0.1 2.1,0.157 3.173,0.157c3.9,0 7.821,-0.63 10.322,-1.849c0.431,0.31 0.678,0.608 0.678,0.849c0,1.018 -3.883,3 -11,3zm0,-4c-1.207,0 -2.3,-0.068 -3.313,-0.168a3.446,3.446 0 0 0 -0.641,-0.838a3.219,3.219 0 0 0 0.781,-1.151c1.041,0.1 2.1,0.157 3.173,0.157c3.9,0 7.821,-0.63 10.322,-1.849c0.431,0.31 0.678,0.608 0.678,0.849c0,1.018 -3.883,3 -11,3zm0,-4c-1.207,0 -2.3,-0.068 -3.313,-0.168a3.446,3.446 0 0 0 -0.641,-0.838a3.219,3.219 0 0 0 0.781,-1.151c1.041,0.1 2.1,0.157 3.173,0.157c3.9,0 7.821,-0.63 10.322,-1.849c0.431,0.31 0.678,0.608 0.678,0.849c0,1.018 -3.883,3 -11,3zm0,-4c-1.207,0 -2.3,-0.068 -3.313,-0.168a3.446,3.446 0 0 0 -0.641,-0.838a3.219,3.219 0 0 0 0.781,-1.151c1.041,0.1 2.1,0.157 3.173,0.157c3.9,0 7.821,-0.63 10.322,-1.849c0.431,0.31 0.678,0.608 0.678,0.849c0,1.018 -3.883,3 -11,3zm0,-4c-1.2,0 -2.287,-0.067 -3.3,-0.166c-0.621,-1.162 -2.175,-2.062 -4.213,-2.7a31.139,31.139 0 0 0 7.513,0.866c3.9,0 7.821,-0.63 10.322,-1.849c0.431,0.31 0.678,0.608 0.678,0.849c0,1.018 -3.883,3 -11,3zm-10.632,-3.583a2.722,2.722 0 0 1 0.31,-0.266a13.563,13.563 0 0 0 1.826,0.7a26.483,26.483 0 0 0 -2.136,-0.434zm10.632,-0.417c-7.117,0 -11,-1.982 -11,-3c0,-0.241 0.247,-0.539 0.678,-0.849c2.501,1.219 6.422,1.849 10.322,1.849s7.821,-0.63 10.322,-1.849c0.431,0.31 0.678,0.608 0.678,0.849c0,1.018 -3.883,3 -11,3zm0,-4c-7.117,0 -11,-1.982 -11,-3s3.883,-3 11,-3s11,1.982 11,3s-3.883,3 -11,3z" data-name="Path 19001" id="svg_40"/>
  </g>
 </g>
</svg>