<svg xmlns="http://www.w3.org/2000/svg" width="49" height="60" viewBox="0 0 49 60">
    <defs>
        <style type="text/css">
            .cls-1{fill:#fff}
        </style>
    </defs>
    <g id="ic_pivx" transform="translate(-4271 -3.715)">
        <path id="Path_18615" d="M4295.475 3.715L4271 8.833V42.77c0 4.969 5.089 9.664 10.6 13.317a105.238 105.238 0 0 0 13.5 7.478l.4.15.4-.15c.992-.373 24.1-10.211 24.1-20.795V8.833zm22.539 39.055c0 7.4-15.911 15.23-22.539 17.838l-.323-.124-.124-.05-.224-.1-.124-.05-.224-.1-.074-.025-.273-.124-.075-.025-.3-.124-.05-.025-.323-.124h-.024l-.373-.15h-.025a77.919 77.919 0 0 1-11.369-6.161l-.447-.3-.446-.323-.422-.3-.025-.025-.4-.3-.025-.025-.4-.3-.024-.025-.4-.3-.05-.025-.372-.273-.05-.025-.348-.273-.049-.05-.323-.273-.05-.05-.3-.273-.075-.05-.273-.273-.074-.074-.274-.273-.074-.074-.273-.248-.074-.074-.249-.248-.074-.1-.224-.248-.075-.1-.223-.248-.075-.1-.2-.248-.1-.1-.173-.223-.1-.124-.173-.223-.1-.124-.15-.223-.074-.124-.15-.223-.074-.15a1.442 1.442 0 0 0-.124-.2l-.1-.15a.755.755 0 0 1-.1-.2l-.075-.15c-.025-.074-.074-.124-.1-.2a.854.854 0 0 0-.075-.15 1.7 1.7 0 0 1-.074-.2c-.025-.074-.05-.1-.075-.174a1.191 1.191 0 0 0-.075-.174.471.471 0 0 1-.05-.174c0-.05-.05-.124-.05-.174a.453.453 0 0 0-.05-.174c-.024-.05-.024-.1-.05-.174s-.025-.124-.049-.2a.384.384 0 0 1-.025-.15c0-.05-.025-.124-.025-.2s-.024-.1-.024-.15a.924.924 0 0 0-.05-.223c-.025-.074 0-.074 0-.124V10.647l22.417-3.6h.2l22.417 3.6.025 32.124z" class="cls-1" data-name="Path 18615"/>
        <path id="Path_18616" d="M4424.748 197.505l-16.977 2.733-3.5.547v29.093c0 6.733 14.47 13.863 20.477 16.223a66.344 66.344 0 0 0 14.545-7.925c.347-.273.72-.547 1.043-.82a17.266 17.266 0 0 0 3.823-4.124 6.427 6.427 0 0 0 1.066-3.33v-29.117zm-9.878 15.428h11.939v2.485h-11.939zm23.282 1.168c0 5.888-4.1 9.69-9.755 9.69h-7.843v12.422h-3.1v-15.23h10.525c4.219 0 6.974-2.559 6.974-6.882 0-4.273-2.755-6.758-6.925-6.758h-3.277l-7.843.025v-2.832h11.467c5.684 0 9.78 3.677 9.78 9.565" class="cls-1" data-name="Path 18616" transform="translate(-129.272 -187.976)"/>
        <path id="Path_18617" d="M4295.475 3.715L4271 8.833V42.77c0 4.969 5.089 9.664 10.6 13.317a105.276 105.276 0 0 0 13.5 7.478l.4.15v-.045l.349-.132c.993-.373 24.1-10.211 24.1-20.795V8.833zm22.516 39.029c0 7.4-15.911 15.23-22.539 17.838v.007l-.274-.106-.125-.05-.223-.074-.125-.05-.224-.1-.074-.025-.273-.124-.075-.025-.3-.124-.049-.025-.323-.15h-.049l-.372-.15h-.025A77 77 0 0 1 4281.6 53.4l-.446-.3-.447-.348-.422-.3-.024-.025-.4-.3-.024-.025-.4-.3-.026-.025-.4-.3-.049-.025-.373-.273-.05-.025-.348-.273-.049-.048-.323-.273-.05-.05-.3-.273-.074-.05-.273-.273-.075-.074-.273-.273-.075-.074-.273-.248-.074-.074-.248-.248-.075-.1-.224-.248-.074-.1-.224-.248-.074-.1-.224-.2-.1-.1-.174-.223-.1-.124-.174-.223-.1-.124-.151-.223-.074-.124-.15-.223-.074-.124a1.4 1.4 0 0 0-.125-.2l-.1-.15-.1-.2-.074-.15c-.025-.074-.075-.124-.1-.2a.821.821 0 0 0-.075-.15 1.616 1.616 0 0 1-.074-.2c-.025-.074-.05-.1-.075-.174a1.138 1.138 0 0 0-.074-.174.37.37 0 0 1-.05-.174c0-.074-.049-.15-.049-.2a.445.445 0 0 0-.05-.174c-.024-.05-.024-.1-.049-.174s-.025-.124-.049-.2a.359.359 0 0 1-.025-.15c0-.05-.025-.124-.025-.2s-.025-.1-.025-.15a.971.971 0 0 0-.05-.223c-.025-.074 0-.074 0-.124V10.647l22.417-3.6h.2l22.417 3.6z" class="cls-1" data-name="Path 18617"/>
        <path id="Path_18618" d="M4424.773 197.505l-17 2.733-3.5.547v29.093c0 6.733 14.47 13.863 20.477 16.223a66.331 66.331 0 0 0 14.545-7.925c.348-.273.72-.547 1.043-.82a17.259 17.259 0 0 0 3.823-4.124c-2.038-.106-2.021-.119.023-.025a6.42 6.42 0 0 0 1.067-3.33v-29.092zm-9.9 15.428h11.913v2.485h-11.913zm5.659 23.278h-3.1l.025-15.228h10.525c4.219 0 6.974-2.559 6.974-6.882 0-4.273-2.755-6.758-6.925-6.758h-3.278l-7.843.025v-2.832h11.466c5.659 0 9.754 3.7 9.754 9.54 0 5.888-4.07 9.69-9.754 9.69h-7.817z" class="cls-1" data-name="Path 18618" transform="translate(-129.272 -187.976)"/>
    </g>
</svg>
